<svg width="205" height="140" viewBox="0 0 205 140" fill="none" xmlns="http://www.w3.org/2000/svg">
<g id="logo">
<path id="motion-path" d="M4.21 81.66C30.72 69.38 43.56 87.38 43.83 100.95C47.61 72.87 89.47 74.41 92.08 99.65C92.54 67.15 118.42 58.65 123.02 58.78" stroke="white" stroke-miterlimit="10"/>
<path id="circle-1" d="M7.85088 82.4182C7.75633 83.1914 7.43472 83.9192 6.92669 84.5097C6.41866 85.1002 5.747 85.5268 4.99659 85.7357C4.24618 85.9446 3.45068 85.9263 2.71062 85.6833C1.97057 85.4403 1.31918 84.9833 0.838737 84.3702C0.358292 83.757 0.0703531 83.0153 0.0113293 82.2386C-0.0476945 81.4618 0.124841 80.6851 0.507118 80.0064C0.889395 79.3277 1.46427 78.7776 2.1591 78.4255C2.85392 78.0734 3.63752 77.9351 4.41088 78.0282C5.44295 78.1681 6.37977 78.705 7.02216 79.5248C7.66456 80.3446 7.96187 81.3827 7.85088 82.4182Z" fill="#ED1C26"/>
<path id="circle-2" d="M135.38 49.65C135.284 50.4225 134.96 51.1491 134.451 51.7381C133.942 52.3271 133.27 52.7521 132.52 52.9595C131.77 53.1669 130.975 53.1474 130.236 52.9034C129.496 52.6594 128.846 52.2019 128.366 51.5886C127.887 50.9754 127.6 50.2338 127.541 49.4575C127.483 48.6812 127.656 47.9051 128.038 47.2269C128.421 46.5488 128.995 45.9991 129.69 45.6473C130.384 45.2955 131.167 45.1572 131.94 45.25C132.455 45.3119 132.953 45.4749 133.405 45.7298C133.857 45.9847 134.255 46.3263 134.574 46.7352C134.894 47.144 135.13 47.612 135.268 48.1122C135.406 48.6124 135.444 49.135 135.38 49.65Z" fill="#ED1C26"/>
<path id="circle-3" d="M132.56 38C132.463 38.7728 132.14 39.4996 131.63 40.0886C131.121 40.6776 130.448 41.1024 129.697 41.3092C128.946 41.5161 128.151 41.4957 127.411 41.2508C126.672 41.0059 126.022 40.5473 125.543 39.9331C125.064 39.3188 124.778 38.5764 124.721 37.7997C124.664 37.0229 124.838 36.2467 125.222 35.569C125.606 34.8913 126.182 34.3426 126.878 33.9921C127.573 33.6417 128.357 33.5052 129.13 33.6C130.168 33.7299 131.112 34.2661 131.755 35.0909C132.398 35.9157 132.687 36.9619 132.56 38Z" fill="#ED1C26"/>
<path id="tagline" d="M74.0879 135.15H74.4135L76.5847 128.596H76.1369L74.2371 134.512L72.2695 128.596H71.9438L69.9762 134.512L68.0764 128.596H67.6285L69.7997 135.15H70.1254L72.1066 129.206L74.0879 135.15ZM82.4755 135.15H82.8826V130.55C82.8826 129.003 82.1362 128.433 80.8335 128.433C79.9243 128.433 78.9473 129.03 78.4588 129.627V126.099H78.0517V135.15H78.4588V130.034C78.9202 129.383 79.8836 128.799 80.7792 128.799C81.797 128.799 82.4755 129.179 82.4755 130.55V135.15ZM84.8682 131.866C84.8682 133.861 86.1845 135.313 88.0843 135.313C89.1834 135.313 89.9433 134.906 90.6083 134.214L90.364 133.956C89.7534 134.607 89.007 134.946 88.0843 134.946C86.4151 134.946 85.3703 133.603 85.3295 132.002H90.9882V131.866C90.9882 130.048 89.9569 128.433 87.9486 128.433C86.1845 128.433 84.8682 129.966 84.8682 131.866ZM87.935 128.799C89.7262 128.799 90.554 130.373 90.554 131.635H85.3295C85.3703 130.346 86.2523 128.799 87.935 128.799ZM92.9734 135.15H93.3805V130.238C93.679 129.627 94.6153 128.949 95.3074 128.949C95.4295 128.949 95.511 128.949 95.6331 128.962V128.474C94.6832 128.474 93.964 129.016 93.3805 129.79V128.596H92.9734V135.15ZM96.7419 131.866C96.7419 133.861 98.0582 135.313 99.958 135.313C101.057 135.313 101.817 134.906 102.482 134.214L102.238 133.956C101.627 134.607 100.881 134.946 99.958 134.946C98.2889 134.946 97.244 133.603 97.2033 132.002H102.862V131.866C102.862 130.048 101.831 128.433 99.8223 128.433C98.0582 128.433 96.7419 129.966 96.7419 131.866ZM99.8087 128.799C101.6 128.799 102.428 130.373 102.428 131.635H97.2033C97.244 130.346 98.1261 128.799 99.8087 128.799ZM108.019 131.866C108.019 133.752 109.213 135.313 111.113 135.313C112.185 135.313 112.796 134.906 113.352 134.214L113.054 133.956C112.525 134.675 111.9 134.946 111.14 134.946C109.458 134.946 108.467 133.576 108.467 131.866C108.467 130.156 109.458 128.799 111.14 128.799C111.9 128.799 112.525 129.057 113.054 129.776L113.352 129.532C112.796 128.84 112.185 128.433 111.113 128.433C109.213 128.433 108.019 129.98 108.019 131.866ZM115.064 135.15H115.471V130.238C115.77 129.627 116.706 128.949 117.398 128.949C117.521 128.949 117.602 128.949 117.724 128.962V128.474C116.774 128.474 116.055 129.016 115.471 129.79V128.596H115.064V135.15ZM118.833 131.866C118.833 133.861 120.149 135.313 122.049 135.313C123.148 135.313 123.908 134.906 124.573 134.214L124.329 133.956C123.718 134.607 122.972 134.946 122.049 134.946C120.38 134.946 119.335 133.603 119.294 132.002H124.953V131.866C124.953 130.048 123.922 128.433 121.913 128.433C120.149 128.433 118.833 129.966 118.833 131.866ZM121.9 128.799C123.691 128.799 124.519 130.373 124.519 131.635H119.294C119.335 130.346 120.217 128.799 121.9 128.799ZM131.172 135.15H131.579V130.414C131.579 129.084 130.616 128.433 129.326 128.433C128.227 128.433 127.549 128.813 126.911 129.559L127.223 129.831C127.834 129.098 128.472 128.799 129.326 128.799C130.331 128.799 131.172 129.369 131.172 130.428V131.907C130.561 131.242 129.829 130.943 128.906 130.943C127.739 130.943 126.612 131.73 126.612 133.128C126.612 134.526 127.752 135.313 128.906 135.313C129.829 135.313 130.561 135.014 131.172 134.349V135.15ZM131.172 133.942C130.67 134.607 129.869 134.946 129.014 134.946C127.82 134.946 127.06 134.146 127.06 133.128C127.06 132.11 127.82 131.31 129.014 131.31C129.869 131.31 130.67 131.649 131.172 132.314V133.942ZM135.103 135.313C135.591 135.313 135.863 135.15 136.121 134.906L135.876 134.594C135.713 134.784 135.428 134.946 135.103 134.946C134.614 134.946 134.397 134.553 134.397 133.997V128.962H135.727V128.596H134.397V126.804H133.99V128.596H132.904V128.962H133.99V133.997C133.99 134.811 134.343 135.313 135.103 135.313ZM137.584 127.469C137.801 127.469 137.978 127.293 137.978 127.076C137.978 126.859 137.801 126.682 137.584 126.682C137.381 126.682 137.191 126.859 137.191 127.076C137.191 127.293 137.381 127.469 137.584 127.469ZM137.381 135.15H137.788V128.596H137.381V135.15ZM141.915 135.15H142.39L145.199 128.596H144.724L142.159 134.675L139.581 128.596H139.106L141.915 135.15ZM146.715 127.469C146.932 127.469 147.108 127.293 147.108 127.076C147.108 126.859 146.932 126.682 146.715 126.682C146.511 126.682 146.321 126.859 146.321 127.076C146.321 127.293 146.511 127.469 146.715 127.469ZM146.511 135.15H146.918V128.596H146.511V135.15ZM150.449 135.313C150.937 135.313 151.209 135.15 151.466 134.906L151.222 134.594C151.059 134.784 150.774 134.946 150.449 134.946C149.96 134.946 149.743 134.553 149.743 133.997V128.962H151.073V128.596H149.743V126.804H149.336V128.596H148.25V128.962H149.336V133.997C149.336 134.811 149.689 135.313 150.449 135.313ZM152.319 137.335L152.238 137.715C152.401 137.769 152.659 137.81 152.889 137.81C153.541 137.81 154.016 137.403 154.328 136.697L157.802 128.596H157.327L154.762 134.675L152.184 128.596H151.709L154.518 135.191L153.921 136.548C153.622 137.253 153.324 137.443 152.889 137.443C152.726 137.443 152.469 137.403 152.319 137.335ZM162.707 136.819C163.467 137.62 164.118 137.81 165.217 137.81C166.805 137.81 167.985 137.063 167.985 135.191V128.596H167.578V129.722C167.049 128.949 166.194 128.433 165.217 128.433C163.453 128.433 162.286 129.831 162.286 131.893C162.286 133.969 163.453 135.34 165.217 135.34C166.249 135.34 167.131 134.729 167.578 134.051V135.191C167.578 136.778 166.52 137.443 165.217 137.443C164.186 137.443 163.575 137.186 163.005 136.48L162.707 136.819ZM167.578 133.644C167.171 134.336 166.235 134.974 165.217 134.974C163.616 134.974 162.734 133.617 162.734 131.893C162.734 130.17 163.616 128.799 165.217 128.799C166.235 128.799 167.171 129.437 167.578 130.129V133.644ZM170.325 135.15H170.732V130.238C171.031 129.627 171.967 128.949 172.659 128.949C172.781 128.949 172.863 128.949 172.985 128.962V128.474C172.035 128.474 171.316 129.016 170.732 129.79V128.596H170.325V135.15ZM177.147 135.313C179.006 135.313 180.2 133.793 180.2 131.866C180.2 129.939 179.006 128.433 177.147 128.433C175.301 128.433 174.094 129.939 174.094 131.866C174.094 133.793 175.301 135.313 177.147 135.313ZM177.147 134.946C175.478 134.946 174.541 133.467 174.541 131.866C174.541 130.278 175.478 128.799 177.147 128.799C178.829 128.799 179.752 130.278 179.752 131.866C179.752 133.467 178.829 134.946 177.147 134.946ZM187.776 135.15H188.102L190.273 128.596H189.825L187.926 134.512L185.958 128.596H185.632L183.665 134.512L181.765 128.596H181.317L183.488 135.15H183.814L185.795 129.206L187.776 135.15ZM191.17 134.268C191.822 135.014 192.541 135.313 193.572 135.313C195.16 135.313 195.92 134.444 195.92 133.427C195.92 132.097 194.712 131.785 193.586 131.5C192.622 131.242 191.713 131.025 191.713 130.17C191.713 129.396 192.392 128.799 193.531 128.799C194.413 128.799 195.106 129.152 195.486 129.695L195.784 129.423C195.363 128.881 194.658 128.433 193.531 128.433C192.12 128.433 191.306 129.206 191.306 130.17C191.306 131.364 192.446 131.649 193.531 131.934C194.536 132.205 195.513 132.463 195.513 133.427C195.513 134.295 194.78 134.946 193.572 134.946C192.609 134.946 191.903 134.512 191.496 133.969L191.17 134.268Z" fill="#ED1C26"/>
<g id="logo-icon">
<path id="left-outside-line" d="M96.9 66.16C76.54 79.41 40.9 39.16 99.14 3.97" stroke="#ED1C26" stroke-width="4.2" stroke-miterlimit="10" stroke-linecap="round"/>
<path id="left-inside-line" d="M91.42 59.43C75.8 58.43 68.12 35.5 95.05 17.3" stroke="#ED1C26" stroke-width="4" stroke-miterlimit="10" stroke-linecap="round"/>
<path id="right-outside-line" d="M111.38 66.9C134.26 79.46 161.75 50.02 124.07 16.25" stroke="#ED1C26" stroke-width="4.2" stroke-miterlimit="10" stroke-linecap="round"/>
<path id="inside-line" d="M95.76 85.75C113.62 58.4 110.43 23.01 106.35 4.15C106.25 1.9 108.01 1.53 110.16 2.92C122.1 10.51 116.82 21.08 107.6 24.22C74.01 35.68 97.96 67.22 116.03 50.94C124.82 43.02 117.38 33.05 107.8 35.55C105.34 36.19 101.44 39.41 99.87 43.15" stroke="#ED1C26" stroke-width="4.2" stroke-miterlimit="10" stroke-linecap="round"/>
<mask id="mask0_59_2" style="mask-type:alpha" maskUnits="userSpaceOnUse" x="81" y="74" width="18" height="16">
<path id="mask" d="M97.59 86.8004C99.425 83.8247 97.3837 79.2364 93.0306 76.5521C88.6776 73.8678 83.6612 74.104 81.8262 77.0797C79.9913 80.0554 82.0326 84.6437 86.3857 87.328C90.7387 90.0123 95.7551 89.7761 97.59 86.8004Z" fill="#ED1C26"/>
</mask>
<g mask="url(#mask0_59_2)">
<path id="mask-shape" d="M74.05 81L97.02 97.49L86.32 111.17L63 93.28L74.05 81Z" fill="#ED2129"/>
</g>
</g>
<g id="Mask Group">
<mask id="mask1_59_2" style="mask-type:alpha" maskUnits="userSpaceOnUse" x="8" y="89" width="197" height="49">
<g id="Text">
<path id="a" d="M29.65 99.1892V115.369C29.65 115.689 29.5864 116.006 29.4628 116.301C29.3392 116.596 29.1581 116.863 28.93 117.088C28.702 117.312 28.4316 117.489 28.1346 117.607C27.8375 117.726 27.5198 117.784 27.2 117.779C26.8873 117.769 26.5798 117.696 26.296 117.564C26.0123 117.432 25.7581 117.245 25.5489 117.012C25.3396 116.779 25.1796 116.507 25.0784 116.211C24.9772 115.915 24.9369 115.601 24.96 115.289V114.779C23.15 116.339 21.03 117.859 18.5 117.859C15.7152 117.859 13.0445 116.753 11.0754 114.784C9.10625 112.815 8 110.144 8 107.359C8 104.574 9.10625 101.904 11.0754 99.9345C13.0445 97.9654 15.7152 96.8592 18.5 96.8592C20.876 96.8824 23.1661 97.7509 24.96 99.3092V99.0892C24.9388 98.7858 24.9816 98.4814 25.0856 98.1957C25.1895 97.91 25.3524 97.6493 25.5636 97.4306C25.7748 97.2118 26.0296 97.0399 26.3115 96.926C26.5934 96.812 26.8961 96.7586 27.2 96.7692C27.5207 96.7638 27.8392 96.8226 28.1369 96.9419C28.4346 97.0613 28.7054 97.2388 28.9336 97.4642C29.1618 97.6896 29.3427 97.9583 29.4657 98.2545C29.5887 98.5507 29.6514 98.8684 29.65 99.1892ZM23.87 107.259C23.85 105.834 23.2802 104.471 22.2797 103.456C21.2791 102.44 19.925 101.85 18.5 101.809C17.046 101.833 15.6556 102.41 14.6116 103.422C13.5676 104.435 12.9485 105.807 12.88 107.259C12.942 108.725 13.5461 110.116 14.5752 111.162C15.6044 112.207 16.9852 112.834 18.45 112.919C19.8944 112.828 21.251 112.194 22.2471 111.144C23.2433 110.094 23.8052 108.706 23.82 107.259H23.87Z" fill="#EE2C24"/>
<path id="p" d="M55.06 111.709C55.0548 113.104 54.7735 114.483 54.2324 115.768C53.6912 117.053 52.9009 118.219 51.907 119.197C50.9132 120.175 49.7354 120.946 48.4418 121.467C47.1482 121.987 45.7643 122.246 44.37 122.229C42.2413 122.229 40.158 121.614 38.37 120.459V130.509C38.3918 130.858 38.342 131.208 38.2235 131.537C38.1049 131.866 37.9203 132.167 37.6809 132.422C37.4415 132.677 37.1524 132.88 36.8315 133.019C36.5106 133.157 36.1647 133.229 35.815 133.229C35.4654 133.229 35.1194 133.157 34.7985 133.019C34.4776 132.88 34.1885 132.677 33.9491 132.422C33.7097 132.167 33.5251 131.866 33.4066 131.537C33.288 131.208 33.2382 130.858 33.26 130.509V103.639C33.2626 103.304 33.3312 102.973 33.4617 102.665C33.5923 102.356 33.7824 102.077 34.021 101.842C34.2596 101.607 34.5422 101.421 34.8526 101.296C35.163 101.17 35.4951 101.107 35.83 101.109C36.3719 101.112 36.8994 101.284 37.3386 101.602C37.7779 101.919 38.107 102.366 38.28 102.879C40.0459 101.667 42.1379 101.018 44.28 101.019C45.6907 101.01 47.0892 101.28 48.3954 101.812C49.7016 102.345 50.8896 103.131 51.8913 104.124C52.893 105.117 53.6886 106.299 54.2324 107.601C54.7761 108.902 55.0574 110.298 55.06 111.709ZM49.94 111.629C49.942 110.525 49.6161 109.444 49.0038 108.525C48.3914 107.606 47.52 106.889 46.5 106.466C45.48 106.042 44.3572 105.931 43.2739 106.146C42.1905 106.361 41.1953 106.893 40.4144 107.674C39.6334 108.455 39.1017 109.45 38.8867 110.533C38.6718 111.616 38.7831 112.739 39.2067 113.759C39.6303 114.779 40.347 115.651 41.2662 116.263C42.1853 116.875 43.2655 117.201 44.37 117.199C45.8456 117.194 47.2593 116.605 48.3028 115.562C49.3462 114.518 49.9347 113.105 49.94 111.629Z" fill="#EE2C24"/>
<path id="p2" d="M80.12 108.429C80.1109 109.821 79.8267 111.197 79.2838 112.479C78.7408 113.761 77.9499 114.922 76.9564 115.897C75.963 116.872 74.7866 117.641 73.4949 118.16C72.2032 118.678 70.8218 118.936 69.43 118.919C67.3013 118.919 65.218 118.304 63.43 117.149V127.199C63.4518 127.548 63.402 127.898 63.2834 128.227C63.1649 128.556 62.9803 128.857 62.7409 129.112C62.5015 129.367 62.2124 129.57 61.8915 129.709C61.5706 129.847 61.2247 129.919 60.875 129.919C60.5253 129.919 60.1794 129.847 59.8585 129.709C59.5376 129.57 59.2485 129.367 59.0091 129.112C58.7697 128.857 58.5851 128.556 58.4666 128.227C58.348 127.898 58.2982 127.548 58.32 127.199V100.359C58.3226 100.023 58.3915 99.6915 58.5227 99.3825C58.6539 99.0735 58.8448 98.7934 59.0845 98.5583C59.3242 98.3233 59.608 98.1378 59.9196 98.0127C60.2311 97.8876 60.5643 97.8252 60.9 97.8292C61.4415 97.8336 61.9683 98.0063 62.4073 98.3234C62.8463 98.6406 63.1757 99.0864 63.35 99.5992C65.115 98.3849 67.2076 97.7362 69.35 97.7392C70.7598 97.7313 72.1573 98.0018 73.4623 98.5352C74.7674 99.0687 75.9542 99.8545 76.9549 100.848C77.9555 101.841 78.7501 103.022 79.2933 104.323C79.8364 105.624 80.1174 107.019 80.12 108.429ZM75.01 108.349C75.012 107.245 74.6864 106.165 74.0745 105.246C73.4625 104.327 72.5918 103.611 71.5723 103.187C70.5529 102.763 69.4306 102.651 68.3475 102.865C67.2645 103.079 66.2693 103.61 65.4879 104.39C64.7065 105.17 64.1741 106.164 63.958 107.247C63.7418 108.33 63.8518 109.452 64.2738 110.472C64.6958 111.492 65.411 112.364 66.3289 112.978C67.2467 113.592 68.326 113.919 69.43 113.919C70.9066 113.914 72.3213 113.326 73.3663 112.283C74.4114 111.239 75.0021 109.826 75.01 108.349Z" fill="#EE2C24"/>
<path id="e" d="M100.16 111.469H87.16C87.4501 112.678 88.1364 113.755 89.1096 114.529C90.0827 115.303 91.2868 115.729 92.53 115.739C94.1508 115.727 95.7183 115.159 96.97 114.129C97.2052 113.892 97.4848 113.705 97.7929 113.576C98.1009 113.448 98.4313 113.382 98.765 113.382C99.0987 113.382 99.4291 113.448 99.7371 113.576C100.045 113.705 100.325 113.892 100.56 114.129C100.8 114.362 100.992 114.641 101.122 114.95C101.253 115.258 101.32 115.589 101.32 115.924C101.32 116.259 101.253 116.59 101.122 116.899C100.992 117.207 100.8 117.486 100.56 117.719C98.3648 119.688 95.5088 120.759 92.56 120.719C89.8038 120.635 87.1887 119.48 85.269 117.501C83.3493 115.521 82.2757 112.872 82.2757 110.114C82.2757 107.357 83.3493 104.707 85.269 102.728C87.1887 100.748 89.8038 99.5938 92.56 99.5092C93.1842 99.5017 93.8075 99.5586 94.42 99.6792C95.8387 99.9567 97.1822 100.533 98.3614 101.369C99.5406 102.205 100.529 103.282 101.26 104.529C102.079 105.76 102.546 107.192 102.61 108.669C102.577 109.096 102.465 109.513 102.28 109.899C102.129 110.346 101.845 110.736 101.466 111.017C101.087 111.297 100.631 111.455 100.16 111.469ZM87.86 107.199H96.86C96.4513 106.416 95.8304 105.763 95.0682 105.315C94.3061 104.868 93.4334 104.644 92.55 104.669C91.6179 104.659 90.6985 104.886 89.8781 105.328C89.0578 105.771 88.3633 106.415 87.86 107.199Z" fill="#EE2C24"/>
<path id="l" d="M114.02 118.489C114.023 118.828 113.958 119.164 113.83 119.477C113.702 119.791 113.513 120.076 113.274 120.316C113.035 120.556 112.75 120.746 112.437 120.875C112.124 121.005 111.789 121.071 111.45 121.069C110.561 121.055 109.686 120.842 108.888 120.448C108.091 120.054 107.391 119.487 106.84 118.789C105.57 117.139 105.66 115.279 105.66 113.289V91.5292C105.701 90.8792 105.988 90.2691 106.462 89.8232C106.937 89.3773 107.564 89.1291 108.215 89.1291C108.866 89.1291 109.493 89.3773 109.968 89.8232C110.442 90.2691 110.729 90.8792 110.77 91.5292V114.479C110.77 114.599 110.77 114.729 110.77 114.859C110.77 114.989 110.77 115.109 110.77 115.239C110.767 115.424 110.837 115.603 110.964 115.737C111.091 115.872 111.265 115.951 111.45 115.959C111.785 115.957 112.117 116.02 112.427 116.146C112.738 116.271 113.02 116.457 113.259 116.692C113.498 116.927 113.688 117.206 113.818 117.515C113.949 117.823 114.017 118.154 114.02 118.489Z" fill="#EE2C24"/>
<path id="f" d="M142.28 94.9192C141.807 95.4064 141.165 95.692 140.486 95.7163C139.808 95.7405 139.146 95.5015 138.64 95.0492C138.05 94.4839 137.267 94.1654 136.45 94.1592C136.022 94.1644 135.599 94.2539 135.205 94.4226C134.812 94.5912 134.455 94.8358 134.156 95.1422C133.857 95.4486 133.622 95.811 133.463 96.2085C133.304 96.6061 133.225 97.031 133.23 97.4592V102.699H137.23C137.579 102.677 137.929 102.727 138.258 102.846C138.587 102.964 138.888 103.149 139.143 103.388C139.398 103.628 139.601 103.917 139.739 104.238C139.878 104.559 139.95 104.905 139.95 105.254C139.95 105.604 139.878 105.95 139.739 106.271C139.601 106.592 139.398 106.881 139.143 107.12C138.888 107.359 138.587 107.544 138.258 107.663C137.929 107.781 137.579 107.831 137.23 107.809H133.23V118.539C133.189 119.2 132.898 119.819 132.416 120.273C131.933 120.726 131.297 120.978 130.635 120.978C129.973 120.978 129.337 120.726 128.854 120.273C128.372 119.819 128.081 119.2 128.04 118.539V97.4092C128.038 95.7742 128.514 94.1742 129.408 92.8055C130.302 91.4367 131.577 90.3587 133.075 89.7037C134.573 89.0486 136.229 88.845 137.841 89.1177C139.453 89.3905 140.951 90.1278 142.15 91.2392C142.649 91.7135 142.942 92.3646 142.966 93.0526C142.991 93.7407 142.744 94.4108 142.28 94.9192Z" fill="#EE2C24"/>
<path id="a_2" d="M163.06 102.389V118.579C163.059 118.898 162.994 119.214 162.87 119.508C162.746 119.802 162.564 120.068 162.337 120.291C162.109 120.514 161.839 120.69 161.542 120.808C161.246 120.926 160.929 120.984 160.61 120.979C160.297 120.969 159.99 120.896 159.706 120.764C159.422 120.632 159.168 120.445 158.959 120.212C158.75 119.979 158.59 119.707 158.488 119.411C158.387 119.115 158.347 118.801 158.37 118.489V117.979C156.56 119.549 154.44 121.069 151.91 121.069C149.125 121.069 146.455 119.963 144.485 117.994C142.516 116.025 141.41 113.354 141.41 110.569C141.41 107.784 142.516 105.114 144.485 103.145C146.455 101.175 149.125 100.069 151.91 100.069C154.286 100.092 156.576 100.961 158.37 102.519V102.309C158.349 102.005 158.392 101.701 158.496 101.414C158.6 101.128 158.762 100.867 158.973 100.647C159.184 100.428 159.439 100.255 159.721 100.14C160.003 100.025 160.306 99.97 160.61 99.9792C160.93 99.9738 161.248 100.032 161.545 100.151C161.842 100.27 162.112 100.446 162.34 100.671C162.568 100.895 162.749 101.163 162.873 101.458C162.996 101.753 163.06 102.069 163.06 102.389ZM157.27 110.459C157.25 109.035 156.682 107.674 155.683 106.659C154.685 105.644 153.333 105.053 151.91 105.009C150.457 105.035 149.068 105.613 148.024 106.625C146.981 107.637 146.361 109.007 146.29 110.459C146.351 111.935 146.961 113.335 148 114.384C149.04 115.433 150.435 116.056 151.91 116.129C153.354 116.036 154.71 115.399 155.704 114.347C156.698 113.296 157.258 111.906 157.27 110.459Z" fill="#EE2C24"/>
<path id="r" d="M184.44 98.6692C184.213 98.9139 183.94 99.1113 183.636 99.2499C183.332 99.3886 183.004 99.4657 182.67 99.4768C182.336 99.488 182.004 99.433 181.691 99.3149C181.379 99.1969 181.093 99.0182 180.85 98.7892C179.899 97.8974 178.644 97.4005 177.34 97.3992C175.924 97.4333 174.58 98.0251 173.598 99.0458C172.617 100.066 172.078 101.433 172.1 102.849V110.849C172.059 111.494 171.775 112.099 171.304 112.541C170.833 112.984 170.211 113.23 169.565 113.23C168.919 113.23 168.297 112.984 167.826 112.541C167.355 112.099 167.071 111.494 167.03 110.849V94.6492C166.994 94.0179 167.195 93.3961 167.594 92.9051C167.992 92.4142 168.559 92.0895 169.184 91.9945C169.809 91.8994 170.447 92.041 170.974 92.3914C171.5 92.7418 171.877 93.2758 172.03 93.8892C173.927 92.687 176.172 92.1549 178.407 92.3778C180.642 92.6008 182.738 93.5659 184.36 95.1192C184.601 95.3455 184.794 95.6176 184.929 95.9195C185.063 96.2213 185.137 96.547 185.144 96.8774C185.151 97.2078 185.093 97.5364 184.972 97.8441C184.851 98.1517 184.67 98.4322 184.44 98.6692Z" fill="#EE2C24"/>
<path id="m" d="M204.16 111.049V121.439C204.168 121.771 204.11 122.1 203.988 122.409C203.866 122.717 203.684 122.998 203.452 123.235C203.22 123.472 202.942 123.66 202.636 123.788C202.33 123.916 202.002 123.981 201.67 123.979C201.333 123.983 200.999 123.92 200.687 123.795C200.375 123.669 200.091 123.483 199.851 123.246C199.611 123.01 199.42 122.729 199.29 122.419C199.159 122.109 199.091 121.776 199.09 121.439V110.919C199.049 110.108 198.688 109.347 198.086 108.801C197.484 108.256 196.691 107.971 195.88 108.009C195.469 107.978 195.056 108.029 194.665 108.158C194.273 108.288 193.912 108.495 193.601 108.765C193.29 109.036 193.037 109.366 192.854 109.736C192.672 110.105 192.565 110.508 192.54 110.919V121.439C192.585 121.794 192.554 122.154 192.449 122.496C192.344 122.838 192.167 123.154 191.931 123.422C191.694 123.69 191.403 123.905 191.077 124.053C190.751 124.2 190.398 124.276 190.04 124.276C189.682 124.276 189.329 124.2 189.003 124.053C188.677 123.905 188.386 123.69 188.149 123.422C187.913 123.154 187.736 122.838 187.631 122.496C187.526 122.154 187.495 121.794 187.54 121.439V110.919C187.441 110.115 187.051 109.375 186.444 108.839C185.837 108.302 185.055 108.006 184.245 108.006C183.435 108.006 182.653 108.302 182.046 108.839C181.439 109.375 181.049 110.115 180.95 110.919V121.569C180.947 121.899 180.88 122.225 180.751 122.528C180.623 122.832 180.436 123.107 180.201 123.338C179.966 123.569 179.688 123.752 179.382 123.876C179.077 123.999 178.75 124.062 178.42 124.059C177.756 124.054 177.121 123.792 176.647 123.327C176.173 122.863 175.898 122.232 175.88 121.569V105.429C175.885 104.753 176.153 104.106 176.627 103.624C177.101 103.143 177.744 102.865 178.42 102.849C178.8 102.847 179.175 102.937 179.513 103.111C179.85 103.286 180.141 103.539 180.36 103.849C181.566 103.24 182.899 102.921 184.25 102.919C186.413 102.918 188.496 103.736 190.08 105.209C191.245 104.108 192.701 103.365 194.276 103.068C195.851 102.771 197.478 102.932 198.964 103.532C200.45 104.132 201.732 105.146 202.659 106.454C203.585 107.762 204.117 109.308 204.19 110.909L204.16 111.049Z" fill="#EE2C24"/>
<path id="where creativity grows" d="M74.3679 135.209H74.6935L76.8647 128.655H76.4169L74.5171 134.571L72.5495 128.655H72.2238L70.2561 134.571L68.3563 128.655H67.9085L70.0797 135.209H70.4054L72.3866 129.266L74.3679 135.209ZM82.7555 135.209H83.1626V130.609C83.1626 129.062 82.4162 128.492 81.1135 128.492C80.2043 128.492 79.2273 129.089 78.7388 129.686V126.158H78.3317V135.209H78.7388V130.093C79.2002 129.442 80.1636 128.858 81.0592 128.858C82.077 128.858 82.7555 129.238 82.7555 130.609V135.209ZM85.1482 131.925C85.1482 133.92 86.4644 135.372 88.3642 135.372C89.4634 135.372 90.2233 134.965 90.8883 134.273L90.644 134.015C90.0334 134.666 89.287 135.006 88.3642 135.006C86.6951 135.006 85.6502 133.662 85.6095 132.061H91.2682V131.925C91.2682 130.107 90.2369 128.492 88.2285 128.492C86.4644 128.492 85.1482 130.025 85.1482 131.925ZM88.215 128.858C90.0062 128.858 90.834 130.433 90.834 131.695H85.6095C85.6502 130.405 86.5323 128.858 88.215 128.858ZM93.2534 135.209H93.6605V130.297C93.959 129.686 94.8953 129.008 95.5874 129.008C95.7095 129.008 95.791 129.008 95.9131 129.021V128.533C94.9632 128.533 94.244 129.076 93.6605 129.849V128.655H93.2534V135.209ZM97.0219 131.925C97.0219 133.92 98.3382 135.372 100.238 135.372C101.337 135.372 102.097 134.965 102.762 134.273L102.518 134.015C101.907 134.666 101.161 135.006 100.238 135.006C98.5689 135.006 97.524 133.662 97.4833 132.061H103.142V131.925C103.142 130.107 102.111 128.492 100.102 128.492C98.3382 128.492 97.0219 130.025 97.0219 131.925ZM100.089 128.858C101.88 128.858 102.708 130.433 102.708 131.695H97.4833C97.524 130.405 98.406 128.858 100.089 128.858ZM108.299 131.925C108.299 133.811 109.493 135.372 111.393 135.372C112.465 135.372 113.076 134.965 113.632 134.273L113.334 134.015C112.805 134.734 112.18 135.006 111.42 135.006C109.738 135.006 108.747 133.635 108.747 131.925C108.747 130.215 109.738 128.858 111.42 128.858C112.18 128.858 112.805 129.116 113.334 129.835L113.632 129.591C113.076 128.899 112.465 128.492 111.393 128.492C109.493 128.492 108.299 130.039 108.299 131.925ZM115.344 135.209H115.751V130.297C116.05 129.686 116.986 129.008 117.678 129.008C117.801 129.008 117.882 129.008 118.004 129.021V128.533C117.054 128.533 116.335 129.076 115.751 129.849V128.655H115.344V135.209ZM119.113 131.925C119.113 133.92 120.429 135.372 122.329 135.372C123.428 135.372 124.188 134.965 124.853 134.273L124.609 134.015C123.998 134.666 123.252 135.006 122.329 135.006C120.66 135.006 119.615 133.662 119.574 132.061H125.233V131.925C125.233 130.107 124.202 128.492 122.193 128.492C120.429 128.492 119.113 130.025 119.113 131.925ZM122.18 128.858C123.971 128.858 124.799 130.433 124.799 131.695H119.574C119.615 130.405 120.497 128.858 122.18 128.858ZM131.452 135.209H131.859V130.473C131.859 129.143 130.896 128.492 129.606 128.492C128.507 128.492 127.829 128.872 127.191 129.618L127.503 129.89C128.114 129.157 128.752 128.858 129.606 128.858C130.611 128.858 131.452 129.428 131.452 130.487V131.966C130.841 131.301 130.109 131.002 129.186 131.002C128.019 131.002 126.892 131.79 126.892 133.187C126.892 134.585 128.032 135.372 129.186 135.372C130.109 135.372 130.841 135.073 131.452 134.409V135.209ZM131.452 134.001C130.95 134.666 130.149 135.006 129.294 135.006C128.1 135.006 127.34 134.205 127.34 133.187C127.34 132.169 128.1 131.369 129.294 131.369C130.149 131.369 130.95 131.708 131.452 132.373V134.001ZM135.383 135.372C135.871 135.372 136.143 135.209 136.401 134.965L136.156 134.653C135.993 134.843 135.708 135.006 135.383 135.006C134.894 135.006 134.677 134.612 134.677 134.056V129.021H136.007V128.655H134.677V126.864H134.27V128.655H133.184V129.021H134.27V134.056C134.27 134.87 134.623 135.372 135.383 135.372ZM137.864 127.529C138.081 127.529 138.258 127.352 138.258 127.135C138.258 126.918 138.081 126.741 137.864 126.741C137.661 126.741 137.471 126.918 137.471 127.135C137.471 127.352 137.661 127.529 137.864 127.529ZM137.661 135.209H138.068V128.655H137.661V135.209ZM142.195 135.209H142.67L145.479 128.655H145.004L142.439 134.734L139.861 128.655H139.386L142.195 135.209ZM146.995 127.529C147.212 127.529 147.388 127.352 147.388 127.135C147.388 126.918 147.212 126.741 146.995 126.741C146.791 126.741 146.601 126.918 146.601 127.135C146.601 127.352 146.791 127.529 146.995 127.529ZM146.791 135.209H147.198V128.655H146.791V135.209ZM150.729 135.372C151.217 135.372 151.488 135.209 151.746 134.965L151.502 134.653C151.339 134.843 151.054 135.006 150.729 135.006C150.24 135.006 150.023 134.612 150.023 134.056V129.021H151.353V128.655H150.023V126.864H149.616V128.655H148.53V129.021H149.616V134.056C149.616 134.87 149.969 135.372 150.729 135.372ZM152.599 137.394L152.518 137.774C152.681 137.828 152.939 137.869 153.169 137.869C153.821 137.869 154.296 137.462 154.608 136.756L158.082 128.655H157.607L155.042 134.734L152.464 128.655H151.989L154.798 135.25L154.201 136.607C153.902 137.313 153.604 137.502 153.169 137.502C153.006 137.502 152.749 137.462 152.599 137.394ZM162.987 136.878C163.747 137.679 164.398 137.869 165.497 137.869C167.085 137.869 168.265 137.123 168.265 135.25V128.655H167.858V129.781C167.329 129.008 166.474 128.492 165.497 128.492C163.733 128.492 162.566 129.89 162.566 131.952C162.566 134.029 163.733 135.399 165.497 135.399C166.529 135.399 167.411 134.788 167.858 134.11V135.25C167.858 136.838 166.8 137.502 165.497 137.502C164.466 137.502 163.855 137.245 163.285 136.539L162.987 136.878ZM167.858 133.703C167.451 134.395 166.515 135.033 165.497 135.033C163.896 135.033 163.014 133.676 163.014 131.952C163.014 130.229 163.896 128.858 165.497 128.858C166.515 128.858 167.451 129.496 167.858 130.188V133.703ZM170.605 135.209H171.012V130.297C171.311 129.686 172.247 129.008 172.939 129.008C173.061 129.008 173.143 129.008 173.265 129.021V128.533C172.315 128.533 171.596 129.076 171.012 129.849V128.655H170.605V135.209ZM177.427 135.372C179.286 135.372 180.48 133.852 180.48 131.925C180.48 129.998 179.286 128.492 177.427 128.492C175.581 128.492 174.374 129.998 174.374 131.925C174.374 133.852 175.581 135.372 177.427 135.372ZM177.427 135.006C175.758 135.006 174.821 133.526 174.821 131.925C174.821 130.338 175.758 128.858 177.427 128.858C179.109 128.858 180.032 130.338 180.032 131.925C180.032 133.526 179.109 135.006 177.427 135.006ZM188.056 135.209H188.382L190.553 128.655H190.105L188.206 134.571L186.238 128.655H185.912L183.945 134.571L182.045 128.655H181.597L183.768 135.209H184.094L186.075 129.266L188.056 135.209ZM191.45 134.327C192.102 135.073 192.821 135.372 193.852 135.372C195.44 135.372 196.2 134.504 196.2 133.486C196.2 132.156 194.992 131.844 193.866 131.559C192.902 131.301 191.993 131.084 191.993 130.229C191.993 129.455 192.672 128.858 193.811 128.858C194.693 128.858 195.386 129.211 195.765 129.754L196.064 129.483C195.643 128.94 194.938 128.492 193.811 128.492C192.4 128.492 191.586 129.266 191.586 130.229C191.586 131.423 192.726 131.708 193.811 131.993C194.816 132.264 195.793 132.522 195.793 133.486C195.793 134.354 195.06 135.006 193.852 135.006C192.889 135.006 192.183 134.571 191.776 134.029L191.45 134.327Z" fill="#EE2C24"/>
</g>
</mask>
<g mask="url(#mask1_59_2)">
<rect id="Rectangle 1" x="-49" y="80" width="261" height="71" fill="#ED1C26"/>
<g id="Colors-2">
<path id="Vector" d="M91.9999 105.055C91.8635 105.055 91.7104 104.966 91.5917 105.015C91.4689 105.066 91.4241 105.239 91.3314 105.332C91.2386 105.424 91.0657 105.47 91.0148 105.592C90.9657 105.711 91.0545 105.864 91.0545 106C91.0545 106.136 90.9657 106.29 91.0148 106.408C91.0657 106.531 91.2388 106.576 91.3314 106.669C91.4239 106.761 91.4689 106.934 91.5917 106.985C91.7104 107.035 91.8635 106.946 91.9999 106.946C92.1362 106.946 92.2894 107.035 92.408 106.985C92.5311 106.934 92.5759 106.761 92.6686 106.669C92.7614 106.576 92.9343 106.531 92.9852 106.408C93.0343 106.29 92.9455 106.136 92.9455 106C92.9455 105.864 93.0343 105.711 92.9852 105.592C92.9343 105.47 92.7612 105.423 92.6686 105.332C92.5761 105.24 92.5316 105.066 92.408 105.015C92.2894 104.966 92.1353 105.055 91.9999 105.055ZM91.9999 106.904C91.8854 106.904 91.7997 106.764 91.7001 106.724C91.5971 106.681 91.4384 106.717 91.3607 106.639C91.2831 106.562 91.3195 106.402 91.2761 106.3C91.2349 106.2 91.0962 106.115 91.0962 106C91.0962 105.886 91.236 105.8 91.2761 105.7C91.3162 105.601 91.2831 105.439 91.3607 105.361C91.4384 105.283 91.5971 105.319 91.7001 105.276C91.7997 105.235 91.8854 105.096 91.9999 105.096C92.1143 105.096 92.2003 105.236 92.2996 105.276C92.4029 105.319 92.5614 105.283 92.639 105.361C92.7166 105.439 92.681 105.597 92.7239 105.7C92.7668 105.803 92.9038 105.887 92.9038 106C92.9038 106.113 92.7651 106.2 92.7239 106.3C92.681 106.403 92.7169 106.562 92.639 106.639C92.5612 106.717 92.4029 106.682 92.2996 106.724C92.2003 106.765 92.1143 106.904 91.9999 106.904Z" fill="#41CFFF"/>
<path id="Vector_2" d="M91.9999 105.35C91.9066 105.35 91.8008 105.288 91.7202 105.322C91.6395 105.357 91.6036 105.477 91.5409 105.54C91.4782 105.604 91.3582 105.635 91.3232 105.719C91.2883 105.804 91.3505 105.906 91.3505 105.999C91.3505 106.092 91.2894 106.198 91.3232 106.28C91.357 106.362 91.4773 106.395 91.5409 106.459C91.6046 106.523 91.6356 106.642 91.7202 106.677C91.8048 106.712 91.9066 106.65 91.9999 106.65C92.0931 106.65 92.1992 106.711 92.2808 106.677C92.3623 106.643 92.3961 106.523 92.4598 106.459C92.5234 106.395 92.6427 106.364 92.6777 106.28C92.7127 106.196 92.6504 106.094 92.6504 106C92.6504 105.907 92.7115 105.801 92.6777 105.721C92.6439 105.64 92.5236 105.604 92.4598 105.541C92.3959 105.479 92.3665 105.359 92.2808 105.324C92.195 105.289 92.0938 105.35 91.9999 105.35ZM91.9999 106.622C91.9213 106.622 91.8621 106.526 91.7938 106.498C91.7255 106.47 91.6137 106.493 91.5607 106.44C91.5078 106.386 91.5321 106.277 91.5025 106.207C91.4729 106.137 91.3787 106.079 91.3787 106C91.3787 105.922 91.4743 105.863 91.5025 105.794C91.5307 105.726 91.5074 105.614 91.5607 105.561C91.6141 105.508 91.7239 105.532 91.7938 105.503C91.8638 105.473 91.9213 105.379 91.9999 105.379C92.0784 105.379 92.1376 105.474 92.2052 105.502C92.2728 105.531 92.3852 105.507 92.4383 105.56C92.4915 105.614 92.467 105.724 92.4966 105.794C92.5262 105.863 92.6204 105.921 92.6204 106C92.6204 106.079 92.5248 106.138 92.4966 106.206C92.4684 106.275 92.4917 106.386 92.4383 106.439C92.3849 106.492 92.2752 106.468 92.2052 106.498C92.1353 106.527 92.0787 106.622 91.9999 106.622Z" fill="#F9762C"/>
</g>
<g id="Colors-1">
<path id="Vector_3" d="M43.9985 108.219C43.4532 108.219 42.8408 107.863 42.3664 108.059C41.8751 108.263 41.6962 108.955 41.3252 109.326C40.9542 109.697 40.2626 109.879 40.0594 110.367C39.8627 110.842 40.2178 111.454 40.2178 111.999C40.2178 112.545 39.8627 113.157 40.0594 113.631C40.2626 114.123 40.9551 114.303 41.3252 114.673C41.6952 115.043 41.8751 115.735 42.3664 115.939C42.8408 116.136 43.4532 115.781 43.9985 115.781C44.5438 115.781 45.1562 116.136 45.6307 115.939C46.1228 115.735 46.3018 115.044 46.6728 114.673C47.0438 114.302 47.7354 114.123 47.9386 113.631C48.1353 113.157 47.7802 112.545 47.7802 111.999C47.7802 111.454 48.1353 110.842 47.9386 110.367C47.7354 109.879 47.0428 109.692 46.6728 109.326C46.3027 108.96 46.1247 108.263 45.6307 108.059C45.1562 107.863 44.5401 108.219 43.9985 108.219ZM43.9985 115.614C43.5408 115.614 43.1978 115.055 42.7998 114.894C42.3878 114.723 41.753 114.866 41.4426 114.555C41.1322 114.245 41.2776 113.607 41.1043 113.198C40.9393 112.8 40.3847 112.457 40.3847 111.999C40.3847 111.542 40.9439 111.199 41.1043 110.801C41.2646 110.403 41.1322 109.754 41.4426 109.443C41.753 109.133 42.3878 109.276 42.7998 109.105C43.1978 108.94 43.5408 108.385 43.9985 108.385C44.4562 108.385 44.8001 108.944 45.1972 109.105C45.6102 109.276 46.244 109.133 46.5544 109.443C46.8648 109.754 46.7222 110.389 46.8937 110.801C47.0652 111.213 47.6133 111.546 47.6133 111.999C47.6133 112.452 47.0587 112.8 46.8937 113.198C46.7222 113.61 46.8657 114.245 46.5544 114.555C46.2431 114.866 45.6102 114.726 45.1972 114.894C44.8001 115.059 44.4562 115.614 43.9985 115.614Z" fill="#006182"/>
<path id="Vector_4" d="M43.9985 109.399C43.6257 109.399 43.2025 109.154 42.88 109.29C42.5575 109.426 42.4139 109.906 42.1632 110.16C41.9124 110.415 41.4324 110.539 41.2926 110.877C41.1527 111.215 41.4016 111.623 41.4016 111.996C41.4016 112.368 41.1574 112.793 41.2926 113.119C41.4277 113.445 41.9087 113.58 42.1632 113.835C42.4176 114.089 42.5416 114.566 42.88 114.706C43.2183 114.846 43.6257 114.597 43.9985 114.597C44.3714 114.597 44.7955 114.841 45.1217 114.706C45.448 114.571 45.5831 114.09 45.8376 113.835C46.0921 113.579 46.5693 113.456 46.7091 113.119C46.849 112.781 46.6001 112.373 46.6001 112C46.6001 111.627 46.8443 111.204 46.7091 110.882C46.574 110.559 46.093 110.416 45.8376 110.165C45.5822 109.914 45.4648 109.434 45.1217 109.294C44.7787 109.154 44.3742 109.399 43.9985 109.399ZM43.9985 114.486C43.6844 114.486 43.4476 114.104 43.1745 113.99C42.9014 113.877 42.454 113.972 42.2424 113.757C42.0308 113.543 42.1277 113.105 42.0094 112.825C41.891 112.546 41.5144 112.315 41.5144 112C41.5144 111.685 41.8966 111.449 42.0094 111.175C42.1222 110.901 42.0289 110.456 42.2424 110.243C42.4559 110.031 42.8949 110.128 43.1745 110.01C43.4542 109.893 43.6844 109.515 43.9985 109.515C44.3126 109.515 44.5494 109.895 44.8197 110.008C45.09 110.122 45.5393 110.028 45.7519 110.241C45.9644 110.455 45.8665 110.894 45.9849 111.173C46.1033 111.453 46.4798 111.683 46.4798 111.998C46.4798 112.313 46.0977 112.549 45.9849 112.823C45.8721 113.097 45.9653 113.543 45.7519 113.755C45.5384 113.968 45.0994 113.871 44.8197 113.988C44.5401 114.106 44.3136 114.486 43.9985 114.486Z" fill="#F99B2C"/>
</g>
</g>
</g>
</g>
</svg>
