<svg width="1202" height="1202" viewBox="0 0 1202 1202" fill="none" xmlns="http://www.w3.org/2000/svg">
<g id="logoframe">
<rect width="1202" height="1202" fill="white"/>
<path id="waterdrop-motion-path" d="M744.683 494C720.683 524.5 709.183 553 706.683 584.5" stroke="white"/>
<path id="nestingmotionpath1" d="M476 1041V690" stroke="white"/>
<path id="nestingmotionpath2" d="M476 1076V728" stroke="white"/>
<path id="housemotionpath2" d="M767 919V571" stroke="white"/>
<path id="housemotionpath1" d="M783 926V578" stroke="white"/>
<path id="body-motion-path-1" d="M622.058 452.011C387.371 505.816 464.444 725.387 558.665 758.646" stroke="white"/>
<path id="waterdrop-motionpath-2" d="M466.328 570.697C454.85 543.279 432.198 540.901 422.307 543.138" stroke="white"/>
<path id="waterdrop-motionpath-2b" d="M469.35 548.148C472.556 532.348 463.117 524.378 457.997 522.368" stroke="white"/>
<path id="tail-motion-path-1" d="M705.5 586C703.9 578 696.5 567.333 693 563" stroke="white"/>
<path id="tail-motion-path-2" d="M707.5 586C711 576 723.167 567.333 730 566" stroke="white"/>
<path id="wing-motion-path-2" d="M743.361 496C715.816 719.438 549.795 739.32 470.228 721.331" stroke="white"/>
<path id="tail-motion-path-3" d="M707.872 589.633C712.573 586.309 720.691 586.306 724.136 587.869" stroke="white"/>
<path id="waterdrop-motionpath-3" d="M612.5 590.5C616.5 578.5 629.167 576.5 635 577" stroke="white"/>
<path id="waterdrop-motionpath-1" d="M577 507.489C578.881 478.725 595 471 604 475.5" stroke="white"/>
<path id="tail-waterdrop-1" d="M692.841 562.01C691.272 563.12 691.138 565.628 692.542 567.613C699.1 576.454 700.739 576.835 702.443 576.015C703.579 575.468 703.889 571.603 698.224 563.594C696.82 561.609 694.41 560.9 692.841 562.01Z" fill="#6ABD45"/>
<circle id="tail-circle-1" cx="705.5" cy="585.5" r="1.5" fill="#6ABD45"/>
<circle id="tail-circle-2" cx="708" cy="586" r="2" fill="#6ABD45"/>
<path id="tail-waterdrop-2" d="M733.51 563.904C732.502 562.203 729.941 561.858 727.79 563.133C718.183 569.124 717.657 570.774 718.356 572.588C718.823 573.798 722.76 574.436 731.44 569.292C733.591 568.017 734.518 565.604 733.51 563.904Z" fill="#6ABD45"/>
<circle id="tail-circle-3" cx="707.5" cy="589.5" r="1.5" fill="#6ABD45"/>
<path id="tail-waterdrop-3" d="M728.378 588.333C728.614 587.094 727.536 585.847 725.969 585.548C718.845 584.355 717.897 584.921 717.465 586.084C717.177 586.859 718.79 588.828 725.113 590.034C726.679 590.333 728.141 589.572 728.378 588.333Z" fill="#6ABD45"/>
<circle id="circledrop-3" cx="613" cy="590" r="4" fill="#6ABD45"/>
<path id="waterdrop-3" d="M644.012 576.856C643.909 574.727 641.641 573.106 638.948 573.236C626.767 574.101 625.433 575.408 625.185 577.491C625.019 578.88 628.45 581.475 639.321 580.949C642.015 580.819 644.115 578.986 644.012 576.856Z" fill="#6ABD45"/>
<circle id="circledrop-2" cx="467.308" cy="568.5" r="10.5" fill="#6ABD45"/>
<path id="waterdrop-2" d="M393.76 547.854C394.18 553.457 400.264 557.568 407.351 557.038C439.375 553.91 442.796 550.375 443.306 544.871C443.645 541.203 434.426 534.606 405.831 536.748C398.745 537.279 393.34 542.251 393.76 547.854Z" fill="#6ABD45"/>
<circle id="circledrop-2b" cx="470.511" cy="546.732" r="5.5" transform="rotate(34.1845 470.511 546.732)" fill="#6ABD45"/>
<path id="waterdrop-2b" d="M442.751 514.784C441.231 517.425 442.709 521.125 446.05 523.046C461.372 531.402 463.985 530.859 465.891 528.545C467.161 527.002 465.035 521.233 451.551 513.479C448.21 511.558 444.27 512.142 442.751 514.784Z" fill="#6ABD45"/>
<circle id="circledrop-1" cx="577.272" cy="501.273" r="6.5" transform="rotate(-19.1479 577.272 501.273)" fill="#6ABD45"/>
<path id="waterdrop-1" d="M614.931 470.504C613.793 467.464 609.753 466.167 605.908 467.607C588.65 474.519 587.323 477.033 587.93 480.168C588.335 482.258 594.515 484.427 610.031 478.616C613.876 477.176 616.07 473.544 614.931 470.504Z" fill="#6ABD45"/>
<path id="Rectangle 1" d="M565.847 491L590.846 498.144L586.999 511.605L562 504.461L565.847 491Z" fill="white"/>
<rect id="Rectangle 2" x="606.685" y="576" width="26" height="14" transform="rotate(49.7483 606.685 576)" fill="white"/>
<rect id="Rectangle 3" x="483.233" y="568.546" width="25" height="22" transform="rotate(134.961 483.233 568.546)" fill="white"/>
<rect id="Rectangle 4" x="490.233" y="549.546" width="25" height="22" transform="rotate(134.961 490.233 549.546)" fill="white"/>
<path id="wing-motion-path-1" d="M841.169 630.239C694.239 800.811 545.104 725.2 488.903 666.073" stroke="white"/>
<path id="wing-motion-path-4" d="M837.751 472C803.466 694.504 636.92 709.359 557.933 688.973" stroke="white"/>
<path id="wing-motion-path-3" d="M786.293 585C757.74 739.401 641.322 746.275 586.683 730.412" stroke="white"/>
<path id="final-body-wave-motionpath" d="M780 737C601.6 723.4 510.333 533.333 487 440" stroke="white"/>
<path id="body-motion-path-2" d="M699.386 714.27C497.895 775.646 426.374 556.504 550.954 465.15" stroke="white"/>
<path id="body-motion-path-3" d="M664.628 716.574C528.266 731.613 424.553 573.638 523.247 458.594" stroke="white"/>
<path id="body-motion-path-4" d="M767.683 660C557.683 722 421.683 586 495.683 412" stroke="white"/>
<path id="final-wing-wave-motionpath" d="M828.523 509.757C770.151 631.415 615.331 692.594 498.169 653.838" stroke="white"/>
<circle id="Ellipse 4" cx="707" cy="587" r="4" fill="white"/>
<path id="waterdrop" d="M725.163 526.012C728.014 527.564 731.916 525.898 733.879 522.292C742.394 505.766 741.75 502.997 739.238 501.025C737.564 499.711 731.473 502.12 723.554 516.672C721.591 520.279 722.311 524.46 725.163 526.012Z" fill="#6ABD45"/>
<circle id="circle-drop" cx="745.44" cy="492.44" r="4.27468" transform="rotate(-19.1479 745.44 492.44)" fill="#6ABD45"/>
<g id="nesting">
<path id="Vector" d="M325 790.896C325.004 790.394 325.207 789.914 325.564 789.56C325.922 789.206 326.405 789.007 326.909 789.007H330.727C331.101 788.998 331.467 789.109 331.773 789.324C332.078 789.539 332.306 789.846 332.422 790.2L333.847 793.907C335.692 792.03 337.896 790.54 340.328 789.525C342.76 788.51 345.371 787.992 348.007 787.999C360.744 787.999 365.858 797.5 365.858 807.881V827.11C365.844 827.607 365.64 828.081 365.288 828.435C364.936 828.788 364.462 828.995 363.963 829.013H355.7C355.194 829.013 354.709 828.812 354.351 828.455C353.993 828.098 353.791 827.614 353.791 827.11V807.299C353.791 802.101 351.085 798.778 346.269 798.778C344.246 798.762 342.264 799.354 340.582 800.476C338.9 801.598 337.596 803.198 336.839 805.069V827.11C336.839 828.53 336.24 829.013 334.331 829.013H326.909C326.408 828.995 325.933 828.789 325.579 828.436C325.225 828.083 325.018 827.609 325 827.11V790.896Z" fill="#24B34B"/>
<path id="Vector_2" d="M394.521 787.999C396.99 787.949 399.444 788.396 401.737 789.312C404.029 790.228 406.113 791.595 407.864 793.331C409.615 795.067 410.997 797.137 411.928 799.417C412.859 801.697 413.32 804.141 413.283 806.603C413.266 807.505 413.2 808.406 413.084 809.301C413.028 809.768 412.804 810.199 412.452 810.513C412.101 810.827 411.647 811.002 411.175 811.005H385.532C385.743 813.397 386.853 815.621 388.638 817.232C390.424 818.844 392.754 819.724 395.162 819.697C397.955 819.653 400.671 818.773 402.955 817.169C403.952 816.572 404.864 816.373 405.562 817.169L409.679 821.869C409.872 822.032 410.025 822.237 410.127 822.467C410.229 822.698 410.276 822.948 410.267 823.2C410.257 823.452 410.19 823.698 410.071 823.92C409.952 824.142 409.784 824.335 409.579 824.482C405.471 828.134 400.123 830.089 394.621 829.95C382.583 829.95 374.064 820.449 374.064 808.946C374.064 797.443 382.583 787.999 394.521 787.999ZM401.544 804.004C401.383 802.169 400.545 800.458 399.193 799.202C397.841 797.946 396.07 797.233 394.222 797.202C392.327 797.221 390.502 797.919 389.079 799.168C387.657 800.416 386.731 802.132 386.472 804.004H401.544Z" fill="#24B34B"/>
<path id="Vector_3" d="M419.509 824.269L422.216 818.873C422.299 818.656 422.43 818.461 422.601 818.303C422.771 818.145 422.975 818.028 423.198 817.961C423.421 817.893 423.656 817.878 423.886 817.916C424.116 817.953 424.334 818.043 424.523 818.177C427.361 819.616 430.475 820.434 433.655 820.577C435.664 820.577 437.06 819.768 437.06 818.078C437.06 816.388 435.635 815.237 430.336 813.079C422.614 810.068 418.939 805.978 418.939 799.872C418.939 793.765 423.441 788.07 433.684 788.07C438.005 787.935 442.279 789.007 446.021 791.166C446.475 791.429 446.817 791.849 446.982 792.346C447.148 792.843 447.125 793.383 446.918 793.864L444.411 798.977C444.159 799.361 443.778 799.642 443.337 799.77C442.895 799.897 442.422 799.863 442.003 799.673C439.381 798.475 436.562 797.762 433.684 797.571C431.276 797.571 430.265 798.579 430.265 799.872C430.265 801.675 432.074 802.272 435.792 803.777C443.513 806.773 449.326 810.068 449.326 817.879C449.326 824.468 443.513 830.078 433.384 830.078C428.656 830.26 423.989 828.964 420.036 826.371C419.719 826.134 419.494 825.796 419.398 825.414C419.302 825.031 419.341 824.627 419.509 824.269Z" fill="#24B34B"/>
<path id="Vector_4" d="M460.338 799.502H456.919C456.43 799.48 455.97 799.269 455.634 798.914C455.299 798.558 455.116 798.087 455.124 797.599V790.896C455.113 790.654 455.15 790.411 455.235 790.183C455.32 789.955 455.45 789.747 455.618 789.571C455.786 789.394 455.987 789.253 456.211 789.157C456.434 789.06 456.675 789.009 456.919 789.008H460.338V777.902C460.353 777.402 460.558 776.926 460.913 776.572C461.268 776.218 461.745 776.013 462.247 775.999L470.467 775.9C470.958 775.918 471.423 776.128 471.761 776.483C472.099 776.839 472.284 777.313 472.276 777.803V789.008H481.109C481.36 789 481.61 789.043 481.843 789.135C482.077 789.227 482.289 789.366 482.466 789.543C482.644 789.72 482.783 789.932 482.876 790.164C482.968 790.397 483.012 790.646 483.004 790.896V797.599C483.006 797.849 482.958 798.096 482.864 798.326C482.769 798.557 482.63 798.767 482.454 798.944C482.278 799.121 482.068 799.261 481.837 799.357C481.607 799.453 481.359 799.502 481.109 799.502H472.276V815.507C472.276 818.347 473.787 818.702 475.382 818.702C477.068 818.596 478.726 818.227 480.297 817.609C480.511 817.504 480.746 817.45 480.985 817.451C481.223 817.451 481.458 817.507 481.672 817.612C481.885 817.718 482.072 817.871 482.216 818.061C482.361 818.25 482.46 818.469 482.505 818.702L484.514 825.008C484.607 825.237 484.652 825.482 484.646 825.729C484.641 825.975 484.585 826.218 484.483 826.443C484.38 826.667 484.233 826.869 484.049 827.035C483.866 827.201 483.651 827.328 483.417 827.408C479.604 828.911 475.573 829.789 471.479 830.007C463.743 830.007 460.338 825.207 460.338 817.098V799.502Z" fill="#24B34B"/>
<path id="Vector_5" d="M491.893 767.904C491.884 767.004 492.053 766.11 492.392 765.275C492.73 764.44 493.231 763.68 493.865 763.038C494.499 762.397 495.254 761.887 496.087 761.537C496.92 761.188 497.814 761.006 498.717 761.002C500.553 761.002 502.315 761.73 503.613 763.024C504.911 764.318 505.641 766.074 505.641 767.904C505.641 769.735 504.911 771.49 503.613 772.785C502.315 774.079 500.553 774.806 498.717 774.806C497.814 774.802 496.92 774.621 496.087 774.271C495.254 773.922 494.499 773.412 493.865 772.77C493.231 772.129 492.73 771.369 492.392 770.534C492.053 769.698 491.884 768.805 491.893 767.904ZM492.791 790.896C492.795 790.394 492.997 789.914 493.355 789.56C493.713 789.206 494.196 789.007 494.7 789.008H503.034C503.538 789.007 504.021 789.206 504.379 789.56C504.736 789.914 504.939 790.394 504.943 790.896V827.11C504.925 827.609 504.718 828.083 504.364 828.436C504.01 828.789 503.534 828.995 503.034 829.013H494.743C494.242 828.995 493.767 828.789 493.412 828.436C493.058 828.083 492.851 827.609 492.834 827.11L492.791 790.896Z" fill="#24B34B"/>
<path id="Vector_6" d="M517.023 790.896C517.023 790.395 517.223 789.915 517.578 789.561C517.934 789.206 518.416 789.008 518.918 789.008H522.736C523.112 788.997 523.481 789.108 523.788 789.323C524.096 789.537 524.327 789.845 524.446 790.2L525.87 793.907C527.714 792.031 529.915 790.542 532.345 789.528C534.774 788.513 537.383 787.994 540.017 787.999C552.838 787.999 557.881 797.5 557.881 807.881V827.11C557.864 827.609 557.657 828.083 557.303 828.436C556.948 828.789 556.473 828.995 555.972 829.013H547.738C547.488 829.013 547.24 828.963 547.01 828.868C546.779 828.772 546.569 828.631 546.393 828.454C546.217 828.278 546.078 828.068 545.983 827.837C545.889 827.606 545.841 827.359 545.843 827.11V807.299C545.843 802.101 543.122 798.778 538.307 798.778C536.289 798.77 534.314 799.369 532.642 800.496C530.97 801.624 529.678 803.227 528.933 805.098V827.11C528.933 828.53 528.321 829.013 526.412 829.013H518.961C518.462 828.995 517.988 828.788 517.636 828.435C517.284 828.081 517.08 827.608 517.066 827.11L517.023 790.896Z" fill="#24B34B"/>
<path id="Vector_7" d="M572.398 814.797C570.356 812.094 569.296 808.779 569.392 805.396C569.396 800.783 571.236 796.36 574.508 793.099C577.78 789.837 582.216 788.003 586.844 787.999H605.093C605.346 787.989 605.599 788.032 605.835 788.124C606.071 788.216 606.286 788.356 606.465 788.534C606.644 788.713 606.785 788.927 606.877 789.162C606.969 789.398 607.012 789.65 607.002 789.902V793.197C607.019 793.559 606.923 793.918 606.726 794.224C606.53 794.529 606.243 794.766 605.905 794.901L600.278 796.705C600.278 796.705 604.295 799.8 604.295 806.901C604.295 814.797 597.671 822.608 587.2 822.608C583.382 822.608 580.775 821.798 579.165 821.798C578.186 821.867 577.267 822.294 576.584 822.996C575.9 823.698 575.501 824.627 575.461 825.604C575.485 826.096 575.61 826.577 575.829 827.019C576.047 827.46 576.354 827.852 576.731 828.171C577.107 828.489 577.546 828.727 578.018 828.869C578.491 829.011 578.988 829.055 579.478 828.998H592.3C601.432 828.998 608.854 834.196 608.854 843.001C608.854 852.203 601.432 860.043 586.886 860.043C572.042 860.043 566.415 852.743 566.415 846.352C566.415 840.345 571.429 837.448 572.441 836.852V836.554C570.222 835.838 568.293 834.43 566.939 832.538C565.584 830.645 564.876 828.369 564.919 826.045C564.876 818.205 572.398 814.797 572.398 814.797ZM586.744 850.002C592.357 850.002 596.075 847.503 596.075 843.711C596.075 841.907 594.651 838.812 588.753 838.812C586.571 838.792 584.391 838.925 582.228 839.209C581.017 839.607 577.954 840.999 577.954 844.109C577.911 847.602 581.316 850.002 586.744 850.002ZM587.143 813.079C589.058 813.079 590.896 812.32 592.25 810.97C593.605 809.62 594.366 807.788 594.366 805.879C594.366 803.969 593.605 802.138 592.25 800.787C590.896 799.437 589.058 798.679 587.143 798.679C585.227 798.679 583.39 799.437 582.036 800.787C580.681 802.138 579.92 803.969 579.92 805.879C579.92 807.788 580.681 809.62 582.036 810.97C583.39 812.32 585.227 813.079 587.143 813.079Z" fill="#24B34B"/>
</g>
<g id="house">
<path id="Vector_8" d="M621.718 760.903C621.733 760.403 621.938 759.927 622.293 759.573C622.648 759.219 623.125 759.014 623.627 759H626.733C627.233 759.018 627.709 759.224 628.063 759.577C628.417 759.93 628.624 760.404 628.642 760.903V793.296C632.325 789.962 637.101 788.079 642.076 787.999C652.048 787.999 657.633 794.305 657.633 806.006V827.11C657.615 827.609 657.408 828.083 657.054 828.436C656.7 828.789 656.224 828.995 655.724 829.013H652.518C652.017 828.998 651.539 828.793 651.184 828.439C650.829 828.086 650.624 827.61 650.609 827.11V806.006C650.609 798.395 647.205 794.645 641.577 794.645C636.718 794.844 632.107 796.838 628.642 800.241V827.11C628.624 827.609 628.417 828.083 628.063 828.436C627.709 828.789 627.233 828.995 626.733 829.013H623.627C623.125 828.998 622.648 828.793 622.293 828.439C621.938 828.086 621.733 827.61 621.718 827.11V760.903Z" fill="#6ABD45"/>
<path id="Vector_9" d="M688.49 787.999C699.616 787.999 708.434 797.599 708.434 808.904C708.434 820.208 699.559 829.95 688.49 829.95C677.42 829.95 668.545 820.35 668.545 808.847C668.545 797.344 677.292 787.999 688.49 787.999ZM688.49 823.503C695.812 823.503 701.525 816.998 701.525 808.904C701.525 800.809 695.826 794.603 688.49 794.603C681.153 794.603 675.44 801.008 675.44 808.904C675.44 816.799 681.11 823.503 688.49 823.503Z" fill="#6ABD45"/>
<path id="Vector_10" d="M719.233 790.896C719.251 790.401 719.456 789.931 719.807 789.58C720.159 789.23 720.631 789.025 721.128 789.007H724.347C724.846 789.025 725.319 789.229 725.673 789.579C726.027 789.929 726.235 790.4 726.256 790.896V811.999C726.256 819.597 729.661 823.36 735.274 823.36C737.557 823.327 739.806 822.802 741.866 821.822C743.927 820.841 745.751 819.428 747.212 817.68V790.896C747.233 790.4 747.442 789.929 747.796 789.579C748.15 789.229 748.623 789.025 749.121 789.007H752.227C752.726 789.022 753.202 789.225 753.556 789.575C753.911 789.926 754.118 790.399 754.136 790.896V827.11C754.122 827.61 753.916 828.086 753.561 828.439C753.206 828.793 752.729 828.998 752.227 829.013H750.332C749.221 829.013 748.822 828.317 748.523 827.323L747.825 824.724C746.108 826.422 744.071 827.764 741.831 828.673C739.592 829.582 737.194 830.04 734.775 830.021C723.136 830.021 719.233 822.523 719.233 811.914V790.896Z" fill="#6ABD45"/>
<path id="Vector_11" d="M765.974 823.403C766.373 822.807 767.086 821.401 767.399 820.904C767.551 820.698 767.743 820.526 767.965 820.399C768.187 820.272 768.432 820.191 768.687 820.163C768.941 820.135 769.198 820.16 769.443 820.236C769.687 820.312 769.913 820.438 770.106 820.605C772.822 822.694 776.111 823.913 779.537 824.099C783.654 824.099 786.047 821.997 786.047 819.299C786.047 815.805 783.041 814.201 777.229 811.304C771.915 808.705 765.832 805.197 765.832 798.395C765.832 794.205 769.237 787.999 778.568 787.999C782.502 787.947 786.369 789.022 789.708 791.095C790.167 791.455 790.481 791.967 790.591 792.539C790.701 793.11 790.6 793.702 790.307 794.205L789.509 795.796C789.235 796.276 788.79 796.636 788.262 796.804C787.734 796.973 787.162 796.937 786.66 796.705C784.182 795.346 781.444 794.528 778.625 794.305C774.123 794.305 772.926 796.605 772.926 798.295C772.926 801.604 776.232 803.109 780.349 805.098C787.272 808.406 793.498 811.502 793.498 818.702C793.498 824.511 787.871 830.064 779.651 830.064C774.907 830.125 770.291 828.533 766.601 825.562C766.292 825.306 766.067 824.963 765.955 824.578C765.844 824.193 765.85 823.784 765.974 823.403Z" fill="#6ABD45"/>
<path id="Vector_12" d="M820.85 787.999C831.378 787.999 839.014 795.796 839.014 806.305C838.997 807.207 838.931 808.108 838.815 809.003C838.776 809.459 838.571 809.885 838.237 810.2C837.903 810.514 837.465 810.695 837.006 810.707H808.157C808.556 817.41 814.468 823.701 821.591 823.701C825.128 823.635 828.579 822.598 831.564 820.705C832.988 819.895 833.558 819.398 834.413 820.506C835.011 821.301 835.51 821.926 836.108 822.807C836.706 823.687 837.219 824.227 835.709 825.405C831.369 828.462 826.163 830.054 820.85 829.95C808.713 829.95 801.191 820.449 801.191 808.946C801.191 797.443 808.713 787.999 820.85 787.999ZM832.091 805.041C831.952 802.134 830.717 799.386 828.632 797.348C826.548 795.31 823.769 794.132 820.85 794.049C817.732 793.973 814.697 795.066 812.347 797.111C809.997 799.157 808.502 802.007 808.157 805.098L832.091 805.041Z" fill="#6ABD45"/>
</g>
<mask id="mask0_21_2" style="mask-type:alpha" maskUnits="userSpaceOnUse" x="325" y="759" width="515" height="102">
<g id="Group 1">
<path id="Vector_13" d="M326.909 789.507H326.909H330.727V789.508L330.739 789.507C331.006 789.501 331.267 789.58 331.485 789.733C331.703 789.886 331.865 790.105 331.947 790.356L331.951 790.368L331.956 790.38L333.38 794.086L333.659 794.811L334.203 794.257C336.002 792.428 338.15 790.975 340.52 789.986C342.891 788.997 345.436 788.492 348.006 788.499H348.007C354.236 788.499 358.548 790.815 361.315 794.355C364.096 797.914 365.358 802.764 365.358 807.881V827.102C365.346 827.47 365.194 827.82 364.934 828.082C364.673 828.343 364.323 828.497 363.954 828.513H355.7C355.326 828.513 354.968 828.364 354.704 828.101C354.439 827.838 354.291 827.481 354.291 827.11V807.299C354.291 804.618 353.593 802.359 352.215 800.762C350.827 799.156 348.801 798.278 346.271 798.278C344.148 798.262 342.07 798.883 340.305 800.06C338.54 801.238 337.17 802.918 336.375 804.882L336.339 804.972V805.069V827.11C336.339 827.765 336.199 828.041 335.996 828.197C335.751 828.385 335.277 828.513 334.331 828.513H326.918C326.547 828.497 326.195 828.344 325.932 828.082L325.579 828.435L325.932 828.082C325.669 827.82 325.515 827.469 325.5 827.1V790.898C325.503 790.529 325.652 790.176 325.916 789.915C326.18 789.654 326.537 789.507 326.909 789.507Z" fill="white" stroke="white"/>
<path id="Vector_14" d="M394.521 788.499V788.499L394.531 788.499C396.933 788.451 399.321 788.885 401.551 789.776C403.781 790.667 405.808 791.997 407.512 793.686C409.215 795.375 410.56 797.388 411.465 799.606C412.371 801.824 412.819 804.2 412.783 806.594C412.767 807.478 412.702 808.36 412.588 809.237L412.588 809.237L412.587 809.242C412.546 809.588 412.38 809.907 412.119 810.14C411.859 810.372 411.523 810.502 411.173 810.505H385.532H384.986L385.034 811.049C385.256 813.567 386.424 815.908 388.303 817.603C390.182 819.299 392.634 820.225 395.168 820.197L395.17 820.196C398.057 820.152 400.864 819.243 403.227 817.589C403.693 817.311 404.082 817.164 404.399 817.146C404.684 817.13 404.938 817.216 405.186 817.498C405.186 817.498 405.186 817.498 405.186 817.499L409.303 822.199L409.328 822.227L409.356 822.251C409.491 822.365 409.598 822.508 409.669 822.669C409.74 822.83 409.774 823.005 409.767 823.181C409.761 823.357 409.714 823.529 409.631 823.684C409.547 823.839 409.43 823.974 409.286 824.077L409.266 824.092L409.247 824.109C405.234 827.676 400.009 829.586 394.633 829.45L394.633 829.45H394.621C382.881 829.45 374.564 820.196 374.564 808.946C374.564 797.696 382.881 788.499 394.521 788.499ZM401.544 804.504H402.09L402.042 803.96C401.87 802.001 400.976 800.176 399.533 798.835C398.091 797.495 396.202 796.735 394.23 796.702L394.23 796.701L394.217 796.702C392.202 796.723 390.262 797.464 388.749 798.792C387.237 800.119 386.253 801.945 385.977 803.935L385.898 804.504H386.472H401.544Z" fill="white" stroke="white"/>
<path id="Vector_15" d="M422.662 819.097L422.674 819.075L422.682 819.052C422.738 818.907 422.826 818.776 422.941 818.67C423.055 818.563 423.193 818.485 423.343 818.439C423.492 818.394 423.651 818.384 423.805 818.409C423.96 818.434 424.107 818.494 424.234 818.585L424.264 818.606L424.297 818.623C427.199 820.094 430.381 820.93 433.633 821.077L433.644 821.077H433.655C434.716 821.077 435.68 820.865 436.395 820.373C437.134 819.863 437.56 819.082 437.56 818.078C437.56 817.579 437.453 817.103 437.189 816.639C436.929 816.183 436.53 815.765 435.986 815.355C434.91 814.543 433.173 813.695 430.524 812.616L430.524 812.616L430.517 812.613C426.697 811.123 423.929 809.386 422.119 807.308C420.32 805.243 419.439 802.813 419.439 799.872C419.439 796.944 420.516 794.133 422.806 792.051C425.099 789.967 428.654 788.57 433.684 788.57H433.691L433.699 788.57C437.928 788.438 442.109 789.487 445.77 791.599C446.119 791.801 446.381 792.123 446.508 792.503C446.633 792.881 446.618 793.29 446.463 793.656L443.977 798.727C443.791 798.998 443.516 799.197 443.198 799.289C442.871 799.384 442.521 799.358 442.211 799.218C439.533 797.994 436.655 797.267 433.717 797.072L433.7 797.071H433.684C432.42 797.071 431.444 797.334 430.772 797.836C430.082 798.352 429.765 799.081 429.765 799.872C429.765 800.414 429.903 800.89 430.193 801.313C430.475 801.726 430.882 802.061 431.372 802.362C432.204 802.872 433.39 803.35 434.877 803.947C435.112 804.042 435.355 804.139 435.604 804.24L435.604 804.24L435.611 804.243C439.468 805.74 442.775 807.286 445.12 809.394C447.439 811.479 448.826 814.123 448.826 817.879C448.826 824.103 443.336 829.578 433.384 829.578H433.375L433.365 829.578C428.746 829.756 424.187 828.492 420.324 825.962C420.105 825.795 419.95 825.558 419.883 825.292C419.816 825.023 419.842 824.739 419.959 824.487L422.662 819.097Z" fill="white" stroke="white"/>
<path id="Vector_16" d="M460.838 799.502V799.002H460.338H456.931C456.576 798.984 456.242 798.829 455.998 798.571C455.752 798.31 455.618 797.965 455.624 797.607H455.624V797.599V790.896V790.884L455.624 790.873C455.615 790.697 455.642 790.522 455.704 790.358C455.765 790.193 455.859 790.043 455.98 789.915C456.102 789.788 456.247 789.686 456.409 789.616C456.571 789.546 456.745 789.509 456.921 789.508H460.338H460.838V789.008V777.91C460.85 777.54 461.003 777.188 461.266 776.926L460.913 776.572L461.266 776.926C461.53 776.664 461.884 776.511 462.258 776.499L470.46 776.4C470.817 776.416 471.153 776.57 471.399 776.828C471.647 777.089 471.782 777.436 471.776 777.795L471.776 777.795V777.803V789.008V789.508H472.276H481.109H481.117L481.125 789.507C481.308 789.502 481.49 789.533 481.66 789.6C481.83 789.667 481.984 789.769 482.113 789.897C482.243 790.026 482.344 790.18 482.411 790.349C482.478 790.518 482.51 790.699 482.504 790.88L482.504 790.888V790.896L482.504 797.599L482.504 797.603C482.505 797.786 482.47 797.968 482.401 798.137L482.864 798.326L482.401 798.137C482.331 798.307 482.229 798.461 482.1 798.591C481.97 798.721 481.816 798.825 481.646 798.895C481.476 798.966 481.293 799.002 481.109 799.002H472.276H471.776V799.502V815.507C471.776 817.009 472.178 817.991 472.926 818.566C473.645 819.119 474.572 819.202 475.382 819.202H475.398L475.414 819.202C477.151 819.092 478.861 818.712 480.48 818.074L480.499 818.067L480.517 818.058C480.662 817.987 480.822 817.95 480.984 817.951C481.145 817.951 481.305 817.989 481.45 818.06L481.672 817.612L481.45 818.06C481.595 818.132 481.721 818.236 481.819 818.364C481.917 818.492 481.984 818.641 482.014 818.798L482.02 818.827L482.029 818.854L484.037 825.16L484.043 825.178L484.05 825.196C484.118 825.361 484.15 825.539 484.146 825.718C484.143 825.896 484.102 826.072 484.028 826.235C483.954 826.398 483.847 826.544 483.714 826.664C483.581 826.784 483.425 826.877 483.255 826.935L483.244 826.939L483.233 826.943C479.475 828.425 475.501 829.291 471.465 829.507C467.713 829.504 465.092 828.343 463.394 826.276C461.679 824.188 460.838 821.094 460.838 817.098V799.502Z" fill="white" stroke="white"/>
<path id="Vector_17" d="M492.393 767.909L492.393 767.909L492.393 767.899C492.385 767.065 492.542 766.237 492.855 765.463C493.169 764.689 493.633 763.984 494.22 763.39C494.808 762.795 495.508 762.322 496.281 761.998C497.052 761.675 497.881 761.506 498.718 761.502C500.422 761.503 502.056 762.178 503.26 763.378C504.464 764.579 505.141 766.207 505.141 767.904C505.141 769.602 504.464 771.23 503.26 772.431C502.056 773.631 500.422 774.306 498.718 774.306C497.881 774.303 497.052 774.134 496.281 773.81C495.508 773.486 494.808 773.013 494.22 772.419C493.633 771.824 493.169 771.12 492.855 770.346C492.542 769.572 492.385 768.744 492.393 767.909ZM493.334 827.1L493.291 790.898C493.294 790.529 493.443 790.176 493.707 789.915L493.355 789.56L493.707 789.915C493.97 789.654 494.327 789.507 494.7 789.508H503.034C503.406 789.507 503.763 789.654 504.027 789.915C504.29 790.176 504.44 790.529 504.443 790.898V827.1C504.428 827.469 504.274 827.82 504.011 828.082C503.748 828.344 503.396 828.498 503.024 828.513H494.752C494.38 828.498 494.028 828.344 493.765 828.082C493.503 827.82 493.349 827.469 493.334 827.1Z" fill="white" stroke="white"/>
<path id="Vector_18" d="M522.736 789.508V789.508H518.918C518.548 789.508 518.193 789.654 517.931 789.915C517.67 790.175 517.524 790.528 517.523 790.896C517.523 790.896 517.523 790.896 517.523 790.896L517.566 827.102C517.578 827.47 517.73 827.82 517.99 828.082C518.251 828.343 518.601 828.497 518.97 828.513H526.412C527.357 828.513 527.836 828.386 528.085 828.196C528.292 828.039 528.433 827.762 528.433 827.11V805.098V805.002L528.469 804.913C529.25 802.949 530.607 801.265 532.363 800.082C534.118 798.899 536.19 798.27 538.308 798.278C538.308 798.278 538.309 798.278 538.309 798.278L538.307 798.778C543.122 798.778 545.843 802.101 545.843 807.299L522.736 789.508ZM522.736 789.508L522.75 789.507M522.736 789.508L522.75 789.507M522.75 789.507C523.018 789.5 523.282 789.579 523.502 789.733L523.788 789.323M522.75 789.507L523.788 789.323M523.788 789.323L523.502 789.733C523.722 789.886 523.887 790.106 523.972 790.359L523.975 790.37M523.788 789.323L523.975 790.37M523.975 790.37L523.979 790.38M523.975 790.37L523.979 790.38M523.979 790.38L525.404 794.086L525.682 794.812M523.979 790.38L525.682 794.812M525.682 794.812L526.227 794.257M525.682 794.812L526.227 794.257M526.227 794.257C528.024 792.429 530.169 790.978 532.537 789.989C534.905 789 537.448 788.494 540.016 788.499H540.017M526.227 794.257L540.017 788.499M540.017 788.499C546.289 788.499 550.603 790.815 553.363 794.355C556.137 797.913 557.381 802.762 557.381 807.881V827.1L540.017 788.499Z" fill="white" stroke="white"/>
<path id="Vector_19" d="M572.604 815.252L572.605 815.252L572.605 815.252L572.605 815.252L573.174 814.994L572.797 814.496C570.823 811.883 569.799 808.679 569.892 805.41L569.892 805.41L569.892 805.396C569.896 800.916 571.683 796.621 574.861 793.453C578.039 790.285 582.349 788.503 586.844 788.499H605.093H605.103L605.113 788.499C605.297 788.491 605.481 788.522 605.654 788.589C605.826 788.657 605.982 788.758 606.112 788.888C606.243 789.018 606.345 789.174 606.412 789.345C606.479 789.516 606.51 789.699 606.502 789.882L606.502 789.892V789.902V793.197V793.209L606.503 793.221C606.515 793.479 606.446 793.735 606.306 793.953C606.169 794.166 605.969 794.333 605.734 794.431L600.125 796.228L599.218 796.519L599.972 797.1L599.972 797.1L599.972 797.1L599.972 797.1L599.973 797.101L599.977 797.104C599.982 797.108 599.991 797.116 600.004 797.126C600.028 797.146 600.067 797.179 600.117 797.224C600.217 797.313 600.363 797.452 600.541 797.641C600.897 798.02 601.377 798.602 601.859 799.399C602.82 800.99 603.795 803.45 603.795 806.901C603.795 814.517 597.399 822.108 587.2 822.108C585.327 822.108 583.749 821.909 582.43 821.709C582.161 821.668 581.9 821.626 581.648 821.586C580.685 821.433 579.842 821.298 579.165 821.298H579.147L579.13 821.3C578.029 821.377 576.995 821.857 576.225 822.647C575.456 823.438 575.006 824.483 574.961 825.584L574.961 825.606L574.962 825.629C574.989 826.189 575.132 826.738 575.38 827.241C575.629 827.744 575.979 828.19 576.408 828.553C576.837 828.915 577.336 829.186 577.874 829.348C578.403 829.507 578.958 829.558 579.506 829.498H592.3C596.776 829.498 600.797 830.773 603.689 833.088C606.57 835.395 608.354 838.754 608.354 843.001C608.354 847.46 606.559 851.579 603.002 854.591C599.439 857.607 594.072 859.543 586.886 859.543C579.542 859.543 574.546 857.737 571.397 855.204C568.253 852.675 566.915 849.396 566.915 846.352C566.915 840.689 571.612 837.921 572.674 837.295L572.695 837.282L572.941 837.137V836.852V836.554V836.189L572.594 836.078C570.477 835.395 568.637 834.052 567.345 832.247C566.053 830.442 565.378 828.27 565.419 826.054L565.419 826.054L565.419 826.042C565.398 822.299 567.18 819.609 568.992 817.839C569.898 816.953 570.807 816.304 571.489 815.876C571.83 815.662 572.113 815.504 572.308 815.401C572.406 815.349 572.482 815.311 572.533 815.287C572.558 815.274 572.577 815.265 572.589 815.26L572.602 815.254L572.604 815.252ZM582.163 838.713L582.116 838.72L582.072 838.734C581.432 838.944 580.296 839.418 579.311 840.262C578.319 841.113 577.455 842.366 577.454 844.106C577.431 846.038 578.371 847.66 580.016 848.779C581.648 849.889 583.964 850.502 586.744 850.502C589.617 850.502 592.056 849.864 593.794 848.693C595.545 847.514 596.575 845.794 596.575 843.711C596.575 842.685 596.171 841.32 594.963 840.216C593.753 839.11 591.789 838.312 588.755 838.312C586.551 838.292 584.348 838.427 582.163 838.713ZM587.143 813.579C589.191 813.579 591.155 812.768 592.603 811.324C594.052 809.88 594.866 807.921 594.866 805.879C594.866 803.836 594.052 801.877 592.603 800.433C591.155 798.989 589.191 798.179 587.143 798.179C585.095 798.179 583.131 798.989 581.683 800.433C580.234 801.877 579.42 803.836 579.42 805.879C579.42 807.921 580.234 809.88 581.683 811.324C583.131 812.768 585.095 813.579 587.143 813.579Z" fill="white" stroke="white"/>
<path id="Vector_20" d="M628.977 793.667C632.57 790.415 637.227 788.578 642.08 788.499C646.954 788.5 650.69 790.037 653.217 792.943C655.753 795.86 657.133 800.228 657.133 806.006V827.1C657.118 827.469 656.964 827.82 656.701 828.082C656.438 828.344 656.086 828.497 655.714 828.513H652.526C652.154 828.5 651.8 828.347 651.537 828.085C651.274 827.823 651.122 827.472 651.109 827.102V806.006C651.109 802.135 650.245 799.165 648.59 797.154C646.922 795.128 644.509 794.145 641.577 794.145H641.567L641.557 794.146C636.574 794.349 631.845 796.395 628.291 799.884L628.142 800.031V800.241V827.1C628.127 827.469 627.973 827.82 627.71 828.082C627.447 828.344 627.095 828.497 626.723 828.513H623.635C623.263 828.5 622.909 828.347 622.646 828.085C622.383 827.823 622.23 827.472 622.218 827.102V760.911C622.23 760.541 622.383 760.189 622.646 759.927C622.909 759.665 623.263 759.512 623.635 759.5H626.723C627.095 759.515 627.447 759.669 627.71 759.931C627.973 760.193 628.127 760.543 628.142 760.912V793.296V794.423L628.977 793.667Z" fill="white" stroke="white"/>
<path id="Vector_21" d="M688.49 788.499C699.313 788.499 707.934 797.847 707.934 808.904C707.934 819.963 699.252 829.45 688.49 829.45C677.726 829.45 669.045 820.104 669.045 808.847C669.045 797.595 677.592 788.499 688.49 788.499ZM688.49 824.003C696.142 824.003 702.025 817.217 702.025 808.904C702.025 800.576 696.144 794.103 688.49 794.103C680.832 794.103 674.94 800.779 674.94 808.904C674.94 817.013 680.775 824.003 688.49 824.003Z" fill="white" stroke="white"/>
<path id="Vector_22" d="M735.274 823.861L735.281 823.86C737.636 823.826 739.956 823.285 742.081 822.273C744.207 821.262 746.088 819.804 747.596 818.001L747.712 817.861V817.68V790.908C747.73 790.541 747.885 790.194 748.147 789.935C748.41 789.675 748.761 789.522 749.131 789.507H752.219C752.59 789.52 752.942 789.671 753.204 789.931L753.556 789.575L753.204 789.931C753.467 790.19 753.621 790.539 753.636 790.906V827.102C753.624 827.472 753.471 827.823 753.208 828.085C752.945 828.347 752.591 828.5 752.219 828.513H750.332C749.897 828.513 749.659 828.384 749.49 828.201C749.297 827.992 749.149 827.666 749.004 827.186L748.308 824.594L748.085 823.764L747.473 824.368C745.803 826.02 743.822 827.325 741.643 828.21C739.465 829.094 737.132 829.54 734.779 829.521H734.775C729.072 829.521 725.352 827.691 723.038 824.643C720.703 821.569 719.733 817.172 719.733 811.914V790.906C719.748 790.54 719.9 790.193 720.16 789.934C720.42 789.675 720.769 789.523 721.137 789.507H724.338C724.708 789.522 725.059 789.675 725.321 789.935L725.673 789.579L725.321 789.935C725.583 790.194 725.738 790.541 725.756 790.908V811.999C725.756 815.864 726.621 818.834 728.274 820.846C729.939 822.874 732.348 823.86 735.274 823.861Z" fill="white" stroke="white"/>
<path id="Vector_23" d="M769.778 820.983L769.789 820.993L769.801 821.002C772.598 823.152 775.983 824.406 779.51 824.598L779.523 824.599H779.537C781.676 824.599 783.42 824.053 784.642 823.106C785.872 822.152 786.547 820.809 786.547 819.299C786.547 817.365 785.696 815.959 784.133 814.689C782.603 813.447 780.341 812.296 777.452 810.856L777.448 810.854C774.794 809.556 772.005 808.057 769.88 806.061C767.768 804.077 766.332 801.624 766.332 798.395C766.332 796.424 767.136 793.952 769.059 791.974C770.972 790.007 774.021 788.499 778.568 788.499V788.499L778.575 788.499C782.404 788.448 786.167 789.492 789.42 791.505C789.773 791.789 790.014 792.189 790.1 792.633C790.187 793.086 790.107 793.555 789.875 793.954L789.867 793.967L789.86 793.981L789.068 795.559C788.856 795.924 788.515 796.199 788.11 796.328C787.707 796.457 787.27 796.431 786.884 796.257C784.349 794.87 781.547 794.034 778.664 793.806L778.645 793.805H778.625C776.292 793.805 774.732 794.401 773.75 795.297C772.768 796.193 772.426 797.334 772.426 798.295C772.426 800.156 773.372 801.49 774.787 802.587C776.102 803.605 777.88 804.462 779.789 805.383C779.902 805.437 780.017 805.492 780.131 805.548L780.133 805.549C783.609 807.21 786.831 808.784 789.193 810.82C791.53 812.833 792.998 815.278 792.998 818.702C792.998 824.171 787.663 829.564 779.651 829.563L779.644 829.564C775.018 829.624 770.517 828.071 766.918 825.175C766.687 824.983 766.519 824.726 766.436 824.439C766.358 824.17 766.356 823.886 766.432 823.618C766.641 823.294 766.91 822.807 767.157 822.356C767.195 822.288 767.232 822.22 767.268 822.154C767.49 821.747 767.685 821.39 767.812 821.187C767.921 821.043 768.058 820.923 768.214 820.833C768.376 820.739 768.556 820.681 768.742 820.66C768.927 820.64 769.116 820.658 769.294 820.714L769.443 820.236L769.294 820.714C769.472 820.769 769.637 820.861 769.778 820.983Z" fill="white" stroke="white"/>
<path id="Vector_24" d="M821.601 824.201C825.225 824.133 828.761 823.072 831.821 821.134C831.961 821.054 832.088 820.98 832.206 820.912C832.398 820.8 832.565 820.703 832.726 820.617C832.984 820.479 833.162 820.405 833.302 820.376C833.422 820.352 833.503 820.363 833.586 820.404C833.686 820.453 833.825 820.564 834.015 820.809C834.162 821.004 834.301 821.187 834.437 821.365C834.862 821.923 835.248 822.431 835.695 823.088C835.734 823.146 835.772 823.201 835.807 823.252C835.916 823.41 836.003 823.537 836.075 823.664C836.165 823.824 836.197 823.93 836.2 824.012C836.204 824.145 836.137 824.435 835.411 825.004C831.161 827.994 826.062 829.552 820.86 829.45L820.86 829.45H820.85C809.042 829.45 801.691 820.229 801.691 808.946C801.691 797.665 809.04 788.499 820.85 788.499C831.095 788.499 838.512 796.064 838.514 806.3C838.498 807.183 838.432 808.063 838.319 808.939L838.318 808.95L838.317 808.961C838.289 809.294 838.138 809.606 837.894 809.836C837.651 810.064 837.333 810.197 836.998 810.207H808.157H807.627L807.658 810.737C808.071 817.678 814.178 824.201 821.591 824.201V824.201L821.601 824.201ZM832.092 805.541L832.615 805.54L832.59 805.017C832.445 801.983 831.156 799.117 828.982 796.99C826.808 794.864 823.909 793.635 820.865 793.549L820.863 793.549C817.619 793.47 814.463 794.607 812.019 796.734C809.575 798.862 808.019 801.826 807.66 805.042L807.598 805.599L808.158 805.598L832.092 805.541Z" fill="white" stroke="white"/>
</g>
</mask>
<g mask="url(#mask0_21_2)">
<circle id="id3" opacity="0.25" cx="774.5" cy="1080.5" r="262.5" fill="#24B34B"/>
<ellipse id="id4" opacity="0.05" cx="465" cy="1101" rx="255" ry="256" fill="#24B34B"/>
<ellipse id="id9" opacity="0.05" rx="160" ry="158" transform="matrix(-1 0 0 1 545 996)" fill="#6ABD45"/>
<circle id="id120" opacity="0.15" r="159" transform="matrix(-1 0 0 1 742 991)" fill="#6ABD45"/>
<ellipse id="id14" opacity="0.15" cx="354" cy="1011" rx="160" ry="158" fill="#24B34B"/>
</g>
<mask id="mask1_21_2" style="mask-type:alpha" maskUnits="userSpaceOnUse" x="481" y="585" width="226" height="157">
<path id="wing-mask-shape" d="M514.907 680.265C482.916 654.721 459.142 683.749 516.961 724.096C574.781 764.444 716.247 740.061 705.974 585.346C689.245 660.817 607.197 677.985 558.345 654.721C542.496 647.174 523.954 651.714 541.322 668.074C508.156 651.819 501.406 664.881 514.907 680.265Z" fill="#22A049"/>
</mask>
<g mask="url(#mask1_21_2)">
<path id="wing-wave-4" opacity="0.8" d="M673.687 533.96L780.043 382L936.991 491.847L830.636 643.807C822.787 638.314 827.133 632.105 819.285 626.612C811.436 621.119 807.094 627.33 799.246 621.837C791.398 616.344 795.736 610.14 787.894 604.651C780.052 599.163 775.7 605.367 767.852 599.874C760.004 594.381 764.352 588.175 756.504 582.682C748.656 577.189 744.31 583.397 736.465 577.907C728.62 572.416 732.962 566.205 725.114 560.712C717.266 555.219 712.924 561.43 705.076 555.937C697.227 550.444 701.573 544.236 693.725 538.743C685.876 533.25 681.535 539.452 673.687 533.96Z" fill="url(#paint0_linear_21_2)" fill-opacity="0.8"/>
<path id="wing-wave-2" opacity="0.8" d="M662.001 557.881L692.95 375L881.835 406.965L850.886 589.846C841.441 588.248 842.705 580.776 833.26 579.178C823.815 577.579 822.554 585.052 813.109 583.453C803.664 581.855 804.923 574.39 795.486 572.793C786.048 571.195 784.776 578.666 775.331 577.068C765.886 575.469 767.154 567.998 757.709 566.4C748.264 564.801 746.999 572.273 737.558 570.675C728.116 569.077 729.377 561.605 719.932 560.006C710.487 558.408 709.226 565.881 699.781 564.282C690.335 562.684 691.6 555.212 682.155 553.613C672.71 552.015 671.446 559.48 662.001 557.881Z" fill="url(#paint1_linear_21_2)" fill-opacity="0.8"/>
<path id="wing-wave-3" opacity="0.8" d="M636.685 554.588L686.782 376L871.232 427.741L821.136 606.329C811.912 603.742 813.959 596.445 804.735 593.858C795.512 591.271 793.469 598.568 784.245 595.981C775.022 593.394 777.063 586.103 767.847 583.518C758.631 580.933 756.577 588.227 747.353 585.64C738.13 583.053 740.18 575.757 730.957 573.17C721.733 570.582 719.687 577.879 710.467 575.293C701.247 572.706 703.29 565.409 694.067 562.821C684.843 560.234 682.8 567.532 673.577 564.944C664.353 562.357 666.4 555.06 657.176 552.473C647.953 549.886 645.908 557.175 636.685 554.588Z" fill="url(#paint2_linear_21_2)" fill-opacity="0.8"/>
<path id="wing-wave-1" opacity="0.8" d="M691.688 572.657L829.034 448L957.784 589.854L820.438 714.512C814 707.418 819.612 702.325 813.173 695.232C806.735 688.138 801.126 693.234 794.688 686.141C788.25 679.047 793.854 673.956 787.42 666.869C780.987 659.781 775.371 664.868 768.933 657.775C762.495 650.681 768.109 645.591 761.671 638.498C755.232 631.404 749.621 636.497 743.185 629.407C736.75 622.316 742.359 617.22 735.921 610.127C729.482 603.033 723.873 608.129 717.435 601.036C710.997 593.942 716.609 588.849 710.171 581.756C703.732 574.662 698.127 579.75 691.688 572.657Z" fill="url(#paint3_linear_21_2)" fill-opacity="0.8"/>
</g>
<mask id="mask2_21_2" style="mask-type:alpha" maskUnits="userSpaceOnUse" x="434" y="471" width="273" height="263">
<path id="body-mask-shape" d="M569.513 596.219C565.956 597.387 522.378 616.102 563.506 658.394C642.577 685.776 703.09 630.712 706.703 586.719C653.597 641.5 592.91 602.996 579.618 572.18C576.96 566.017 579.331 565.14 584.367 566.026L605.1 570.453C614.876 571.64 614.884 565.48 610.149 561.661L590.321 544.329C608.481 477.477 519.334 452.428 482.253 487.577C445.172 522.726 471.832 526.575 488.434 518.677C475.674 533.619 495.817 537.165 506.189 535.419C372.127 644.65 460.908 723.669 491.708 733.389C474.843 715.474 467.166 696.105 466.003 678.798C464.841 661.491 477.605 643.029 494.494 641.878C484.328 637.758 464.114 628.58 464.593 624.826C465.071 621.072 479.806 621.326 487.114 621.922C483.612 580.854 536.062 574.469 569.513 596.219Z" fill="white"/>
</mask>
<g mask="url(#mask2_21_2)">
<path id="body-wave-3" opacity="0.8" d="M801.498 547.128L1038.17 696.303L884.099 940.746L647.426 791.571C655.13 779.348 664.8 785.443 672.504 773.22C680.209 760.996 670.536 754.906 678.24 742.683C685.945 730.459 695.608 736.543 703.306 724.33C711.004 712.116 701.341 706.012 709.045 693.788C716.749 681.565 726.416 687.664 734.12 675.441C741.825 663.218 732.155 657.123 739.856 644.904C747.558 632.686 757.23 638.776 764.935 626.552C772.639 614.329 762.966 608.239 770.671 596.016C778.375 583.792 788.045 589.887 795.749 577.664C803.453 565.44 793.793 559.352 801.498 547.128Z" fill="url(#paint4_linear_21_2)" fill-opacity="0.8"/>
<path id="body-wave-1" opacity="0.8" d="M732.221 540.1L1010.77 566.096L983.924 853.793L705.371 827.797C706.714 813.41 718.095 814.473 719.437 800.086C720.78 785.7 709.399 784.644 710.741 770.257C712.084 755.871 723.454 756.926 724.795 742.551C726.137 728.177 714.757 727.103 716.1 712.717C717.442 698.331 728.823 699.398 730.165 685.012C731.508 670.626 720.127 669.564 721.469 655.183C722.811 640.802 734.193 641.859 735.535 627.473C736.878 613.086 725.497 612.03 726.839 597.644C728.182 583.257 739.563 584.319 740.905 569.933C742.248 555.547 730.878 554.486 732.221 540.1Z" fill="url(#paint5_linear_21_2)" fill-opacity="0.8"/>
<path id="body-wave-4" opacity="0.8" d="M763.693 532.945L1019.5 646.205L902.527 910.415L646.715 797.155C652.565 783.943 663.016 788.571 668.866 775.359C674.715 762.147 664.261 757.525 670.111 744.313C675.96 731.101 686.404 735.719 692.249 722.518C698.094 709.316 687.647 704.678 693.496 691.467C699.345 678.255 709.795 682.887 715.644 669.676C721.494 656.464 711.042 651.836 716.889 638.63C722.736 625.423 733.19 630.045 739.04 616.834C744.889 603.622 734.435 599 740.285 585.788C746.134 572.576 756.586 577.203 762.435 563.992C768.285 550.78 757.844 546.157 763.693 532.945Z" fill="url(#paint6_linear_21_2)" fill-opacity="0.8"/>
<path id="final-body-wave-1" d="M872.919 520.068L1246 685.248L1075.4 1070.58L702.317 905.397C710.848 886.129 726.091 892.877 734.622 873.609C743.153 854.341 727.906 847.599 736.437 828.331C744.968 809.063 760.199 815.797 768.724 796.544C777.248 777.291 762.012 770.527 770.543 751.259C779.074 731.99 794.313 738.747 802.844 719.478C811.375 700.21 796.132 693.461 804.66 674.201C813.187 654.94 828.434 661.681 836.965 642.413C845.496 623.144 830.249 616.403 838.78 597.135C847.311 577.867 862.554 584.615 871.085 565.347C879.616 546.079 864.388 539.337 872.919 520.068Z" fill="#6ABD45"/>
<path id="final-body-wave-2" opacity="0.4" d="M844.618 507.006L1217.7 672.186L1047.1 1057.51L674.015 892.334C682.546 873.066 697.789 879.815 706.32 860.547C714.851 841.278 699.605 834.537 708.136 815.269C716.667 796 731.898 802.735 740.422 783.482C748.946 764.229 733.71 757.465 742.241 738.196C750.772 718.928 766.012 725.684 774.543 706.416C783.074 687.148 767.831 680.399 776.358 661.138C784.886 641.877 800.132 648.619 808.663 629.35C817.194 610.082 801.948 603.341 810.479 584.073C819.01 564.804 834.253 571.553 842.784 552.285C851.315 533.016 836.087 526.274 844.618 507.006Z" fill="#6ABD45"/>
</g>
</g>
<defs>
<linearGradient id="paint0_linear_21_2" x1="767.214" y1="576.958" x2="873.574" y2="424.992" gradientUnits="userSpaceOnUse">
<stop stop-color="#00FF4F"/>
<stop offset="0.3125" stop-color="#2FCF61"/>
<stop offset="1" stop-color="#22A049"/>
</linearGradient>
<linearGradient id="paint1_linear_21_2" x1="756.442" y1="573.871" x2="787.393" y2="390.983" gradientUnits="userSpaceOnUse">
<stop stop-color="#00FF4F"/>
<stop offset="0.3125" stop-color="#2FCF61"/>
<stop offset="1" stop-color="#22A049"/>
</linearGradient>
<linearGradient id="paint2_linear_21_2" x1="728.908" y1="580.466" x2="779.007" y2="401.87" gradientUnits="userSpaceOnUse">
<stop stop-color="#00FF4F"/>
<stop offset="0.3125" stop-color="#2FCF61"/>
<stop offset="1" stop-color="#22A049"/>
</linearGradient>
<linearGradient id="paint3_linear_21_2" x1="756.058" y1="643.589" x2="893.409" y2="518.927" gradientUnits="userSpaceOnUse">
<stop stop-color="#00FF4F"/>
<stop offset="0.3125" stop-color="#2FCF61"/>
<stop offset="1" stop-color="#22A049"/>
</linearGradient>
<linearGradient id="paint4_linear_21_2" x1="724.452" y1="669.344" x2="961.135" y2="818.524" gradientUnits="userSpaceOnUse">
<stop stop-color="#A2ED04"/>
<stop offset="1" stop-color="#24B34B"/>
</linearGradient>
<linearGradient id="paint5_linear_21_2" x1="718.785" y1="683.947" x2="997.349" y2="709.944" gradientUnits="userSpaceOnUse">
<stop stop-color="#A2ED04"/>
<stop offset="1" stop-color="#24B34B"/>
</linearGradient>
<linearGradient id="paint6_linear_21_2" x1="698.857" y1="601.366" x2="954.679" y2="714.63" gradientUnits="userSpaceOnUse">
<stop stop-color="#A2ED04"/>
<stop offset="1" stop-color="#24B34B"/>
</linearGradient>
</defs>
</svg>
