<svg width="413" height="413" viewBox="0 0 413 413" fill="none" xmlns="http://www.w3.org/2000/svg">
<g id="Frame 1" clip-path="url(#clip0_2_3)">
<rect width="413" height="413" fill="white"/>
<g id="Group 6">
<g id="text">
<g id="Group 5">
<path id="n" d="M110 261.9C110 261.709 110.076 261.526 110.211 261.391C110.346 261.256 110.529 261.18 110.72 261.18H112.16C112.303 261.177 112.444 261.22 112.561 261.303C112.678 261.386 112.765 261.504 112.81 261.64L113.34 263.04C114.037 262.328 114.87 261.764 115.788 261.379C116.707 260.994 117.694 260.797 118.69 260.8C123.52 260.8 125.46 264.41 125.46 268.36V275.65C125.452 275.84 125.373 276.021 125.237 276.154C125.102 276.288 124.92 276.365 124.73 276.37H121.62C121.525 276.37 121.432 276.351 121.344 276.315C121.257 276.279 121.178 276.226 121.111 276.159C121.044 276.092 120.991 276.013 120.955 275.926C120.919 275.838 120.9 275.745 120.9 275.65V268.13C120.9 266.13 119.9 264.9 118.05 264.9C117.282 264.894 116.531 265.12 115.894 265.548C115.257 265.976 114.764 266.587 114.48 267.3V275.65C114.48 276.18 114.25 276.37 113.48 276.37H110.67C110.481 276.365 110.3 276.287 110.167 276.154C110.033 276.02 109.955 275.839 109.95 275.65L110 261.9Z" fill="#22A049"/>
<path id="e" d="M136.32 260.8C137.253 260.787 138.179 260.96 139.043 261.309C139.908 261.659 140.694 262.178 141.356 262.836C142.017 263.493 142.541 264.277 142.895 265.139C143.25 266.002 143.428 266.927 143.42 267.86C143.415 268.194 143.392 268.528 143.35 268.86C143.328 269.037 143.244 269.2 143.111 269.319C142.979 269.439 142.808 269.507 142.63 269.51H132.9C132.983 270.418 133.404 271.261 134.081 271.873C134.757 272.484 135.638 272.819 136.55 272.81C137.624 272.81 138.672 272.478 139.55 271.86C139.93 271.63 140.27 271.56 140.55 271.86L142.11 273.65C142.189 273.708 142.252 273.783 142.296 273.87C142.34 273.957 142.363 274.053 142.363 274.15C142.363 274.247 142.34 274.343 142.296 274.43C142.252 274.517 142.189 274.592 142.11 274.65C140.559 276.042 138.534 276.79 136.45 276.74C135.407 276.747 134.374 276.544 133.411 276.142C132.449 275.74 131.578 275.147 130.85 274.4C130.123 273.653 129.554 272.766 129.177 271.794C128.801 270.821 128.625 269.782 128.66 268.74C128.639 267.715 128.82 266.696 129.194 265.741C129.568 264.787 130.127 263.915 130.839 263.177C131.551 262.44 132.402 261.85 133.342 261.442C134.283 261.034 135.295 260.816 136.32 260.8ZM138.98 266.88C138.919 266.183 138.602 265.533 138.091 265.055C137.579 264.577 136.91 264.305 136.21 264.29C135.48 264.283 134.774 264.542 134.221 265.019C133.669 265.496 133.31 266.157 133.21 266.88H138.98Z" fill="#22A049"/>
<path id="s" d="M145.78 274.55L146.78 272.55C146.811 272.467 146.861 272.392 146.926 272.331C146.99 272.269 147.068 272.224 147.153 272.198C147.239 272.172 147.328 272.166 147.416 272.18C147.504 272.194 147.587 272.228 147.66 272.28C148.731 272.83 149.907 273.144 151.11 273.2C151.87 273.2 152.41 272.89 152.41 272.2C152.41 271.51 151.87 271.09 149.86 270.3C146.94 269.16 145.57 267.6 145.57 265.3C145.57 263 147.28 260.82 151.15 260.82C152.787 260.767 154.405 261.176 155.82 262C155.99 262.095 156.12 262.25 156.184 262.434C156.249 262.618 156.244 262.819 156.17 263L155.17 264.94C155.072 265.085 154.927 265.192 154.759 265.241C154.591 265.291 154.411 265.28 154.25 265.21C153.257 264.754 152.19 264.483 151.1 264.41C150.19 264.41 149.81 264.79 149.81 265.28C149.81 265.97 150.49 266.19 151.9 266.76C154.82 267.9 157.03 269.16 157.03 272.12C157.03 274.63 154.82 276.75 151.03 276.75C149.259 276.812 147.512 276.323 146.03 275.35C145.902 275.266 145.807 275.141 145.762 274.995C145.716 274.849 145.723 274.692 145.78 274.55Z" fill="#22A049"/>
<path id="t" d="M161.25 265.17H159.96C159.774 265.162 159.599 265.083 159.47 264.949C159.342 264.815 159.27 264.636 159.27 264.45V261.9C159.266 261.807 159.281 261.714 159.314 261.627C159.346 261.54 159.397 261.46 159.461 261.393C159.526 261.325 159.603 261.272 159.689 261.235C159.775 261.199 159.867 261.18 159.96 261.18H161.25V256.96C161.255 256.771 161.333 256.59 161.466 256.456C161.6 256.323 161.781 256.245 161.97 256.24H165.08C165.267 256.25 165.442 256.332 165.57 256.467C165.699 256.603 165.77 256.783 165.77 256.97V261.22H169.11C169.206 261.216 169.301 261.231 169.39 261.266C169.48 261.301 169.561 261.354 169.629 261.421C169.696 261.489 169.749 261.57 169.784 261.66C169.819 261.749 169.834 261.844 169.83 261.94V264.49C169.83 264.681 169.754 264.864 169.619 264.999C169.484 265.134 169.301 265.21 169.11 265.21H165.77V271.29C165.77 272.35 166.34 272.5 166.95 272.5C167.589 272.461 168.217 272.319 168.81 272.08C168.891 272.042 168.98 272.023 169.07 272.024C169.159 272.025 169.247 272.047 169.327 272.087C169.408 272.128 169.477 272.186 169.531 272.258C169.586 272.329 169.623 272.412 169.64 272.5L170.4 274.89C170.435 274.978 170.452 275.072 170.449 275.166C170.447 275.261 170.426 275.354 170.386 275.44C170.347 275.526 170.291 275.603 170.221 275.666C170.151 275.73 170.069 275.779 169.98 275.81C168.537 276.385 167.011 276.722 165.46 276.81C162.54 276.81 161.25 274.99 161.25 271.91V265.17Z" fill="#22A049"/>
<path id="i" d="M173.25 253.16C173.247 252.818 173.312 252.478 173.441 252.161C173.57 251.844 173.76 251.556 174.001 251.312C174.242 251.069 174.528 250.875 174.843 250.743C175.159 250.61 175.498 250.541 175.84 250.54C176.186 250.537 176.53 250.603 176.85 250.734C177.171 250.864 177.463 251.056 177.709 251.3C177.955 251.543 178.151 251.833 178.285 252.152C178.419 252.471 178.489 252.814 178.49 253.16C178.49 253.507 178.421 253.851 178.288 254.171C178.154 254.491 177.959 254.782 177.713 255.027C177.466 255.271 177.174 255.465 176.853 255.596C176.531 255.727 176.187 255.793 175.84 255.79C175.497 255.789 175.157 255.719 174.841 255.586C174.525 255.453 174.238 255.259 173.997 255.014C173.757 254.77 173.567 254.48 173.438 254.162C173.31 253.844 173.246 253.503 173.25 253.16ZM173.59 261.9C173.593 261.708 173.671 261.525 173.807 261.39C173.944 261.255 174.128 261.18 174.32 261.18H177.47C177.661 261.18 177.844 261.256 177.979 261.391C178.114 261.526 178.19 261.709 178.19 261.9V275.65C178.185 275.839 178.107 276.019 177.974 276.153C177.84 276.287 177.659 276.365 177.47 276.37H174.25C174.06 276.365 173.878 276.288 173.743 276.154C173.607 276.02 173.528 275.84 173.52 275.65L173.59 261.9Z" fill="#22A049"/>
<path id="n_2" d="M182.7 261.9C182.7 261.709 182.776 261.526 182.911 261.391C183.046 261.256 183.229 261.18 183.42 261.18H184.86C185.004 261.175 185.145 261.218 185.262 261.301C185.38 261.384 185.467 261.503 185.51 261.64L186.04 263.04C186.739 262.328 187.573 261.762 188.493 261.378C189.414 260.993 190.402 260.796 191.4 260.8C196.22 260.8 198.16 264.41 198.16 268.36V275.65C198.155 275.839 198.077 276.02 197.944 276.154C197.81 276.287 197.629 276.365 197.44 276.37H194.32C194.129 276.37 193.946 276.294 193.811 276.159C193.676 276.024 193.6 275.841 193.6 275.65V268.13C193.6 266.13 192.6 264.9 190.75 264.9C189.983 264.895 189.232 265.122 188.595 265.55C187.958 265.978 187.465 266.588 187.18 267.3V275.65C187.18 276.18 186.95 276.37 186.23 276.37H183.42C183.231 276.365 183.05 276.287 182.917 276.154C182.783 276.02 182.705 275.839 182.7 275.65V261.9Z" fill="#22A049"/>
<path id="g" d="M203.67 270.98C202.896 269.954 202.494 268.695 202.53 267.41C202.533 265.658 203.23 263.978 204.469 262.739C205.708 261.5 207.388 260.803 209.14 260.8H216.05C216.146 260.796 216.241 260.811 216.331 260.846C216.42 260.881 216.501 260.934 216.569 261.001C216.636 261.069 216.689 261.15 216.724 261.239C216.759 261.329 216.774 261.424 216.77 261.52V262.78C216.777 262.917 216.74 263.053 216.664 263.168C216.589 263.283 216.479 263.371 216.35 263.42L214.23 264.11C214.751 264.605 215.157 265.207 215.42 265.876C215.682 266.545 215.795 267.263 215.75 267.98C215.727 268.804 215.54 269.615 215.199 270.365C214.858 271.116 214.37 271.79 213.764 272.349C213.158 272.909 212.447 273.341 211.672 273.621C210.897 273.901 210.073 274.023 209.25 273.98C207.81 273.98 206.82 273.68 206.25 273.68C205.88 273.704 205.532 273.865 205.273 274.131C205.015 274.397 204.864 274.749 204.85 275.12C204.858 275.307 204.905 275.49 204.987 275.658C205.07 275.826 205.186 275.975 205.329 276.096C205.471 276.217 205.637 276.308 205.817 276.362C205.996 276.416 206.184 276.432 206.37 276.41H211.23C214.68 276.41 217.49 278.41 217.49 281.73C217.49 285.23 214.68 288.19 209.18 288.19C203.68 288.19 201.43 285.42 201.43 282.98C201.461 282.233 201.687 281.506 202.088 280.874C202.488 280.242 203.047 279.727 203.71 279.38V279.26C202.867 278.99 202.133 278.455 201.62 277.734C201.106 277.013 200.84 276.145 200.86 275.26C200.899 274.36 201.181 273.486 201.676 272.733C202.17 271.98 202.859 271.374 203.67 270.98ZM209.1 284.35C211.23 284.35 212.63 283.4 212.63 281.96C212.63 281.27 212.1 280.1 209.86 280.1C209.034 280.089 208.209 280.139 207.39 280.25C206.93 280.4 205.76 280.93 205.76 282.11C205.76 283.29 207.05 284.35 209.1 284.35ZM209.25 270.35C209.606 270.359 209.96 270.294 210.289 270.158C210.619 270.023 210.916 269.82 211.163 269.563C211.409 269.307 211.6 269.001 211.721 268.666C211.843 268.332 211.894 267.975 211.87 267.62C211.895 267.264 211.846 266.906 211.725 266.571C211.603 266.235 211.413 265.928 211.167 265.67C210.92 265.412 210.622 265.208 210.292 265.072C209.962 264.936 209.607 264.871 209.25 264.88C208.892 264.874 208.537 264.942 208.206 265.078C207.876 265.215 207.577 265.418 207.327 265.675C207.078 265.931 206.884 266.236 206.757 266.571C206.631 266.906 206.574 267.263 206.59 267.62C206.576 267.975 206.635 268.33 206.764 268.661C206.892 268.993 207.086 269.295 207.335 269.549C207.584 269.803 207.883 270.003 208.212 270.137C208.541 270.271 208.894 270.337 209.25 270.33V270.35Z" fill="#22A049"/>
<path id="h" d="M222.34 250.51C222.345 250.32 222.422 250.138 222.556 250.003C222.689 249.867 222.87 249.788 223.06 249.78H224.25C224.44 249.788 224.621 249.867 224.754 250.003C224.888 250.138 224.965 250.32 224.97 250.51V262.81C226.369 261.549 228.177 260.839 230.06 260.81C233.82 260.81 235.95 263.2 235.95 267.65V275.65C235.945 275.839 235.867 276.02 235.734 276.153C235.6 276.287 235.419 276.365 235.23 276.37H234.01C233.821 276.365 233.64 276.287 233.506 276.153C233.373 276.02 233.295 275.839 233.29 275.65V267.65C233.29 264.76 232 263.36 229.87 263.36C228.031 263.436 226.285 264.191 224.97 265.48V275.66C224.965 275.849 224.887 276.03 224.754 276.163C224.62 276.297 224.439 276.375 224.25 276.38H223.07C222.881 276.375 222.7 276.297 222.566 276.163C222.433 276.03 222.355 275.849 222.35 275.66L222.34 250.51Z" fill="#6ABD45"/>
<path id="o" d="M247.6 260.8C249.652 260.86 251.598 261.728 253.013 263.215C254.429 264.702 255.2 266.687 255.16 268.74C255.214 270.802 254.449 272.802 253.032 274.301C251.615 275.8 249.662 276.677 247.6 276.74C245.538 276.677 243.585 275.8 242.168 274.301C240.751 272.802 239.986 270.802 240.04 268.74C240 266.687 240.771 264.702 242.187 263.215C243.602 261.728 245.548 260.86 247.6 260.8ZM247.6 274.28C250.37 274.28 252.54 271.82 252.54 268.74C252.575 268.058 252.475 267.377 252.245 266.734C252.015 266.092 251.66 265.501 251.201 264.996C250.742 264.491 250.187 264.082 249.569 263.793C248.951 263.504 248.282 263.339 247.6 263.31C246.918 263.339 246.249 263.504 245.631 263.793C245.013 264.082 244.458 264.491 243.999 264.996C243.54 265.501 243.185 266.092 242.955 266.734C242.725 267.377 242.625 268.058 242.66 268.74C242.66 271.82 244.83 274.28 247.6 274.28Z" fill="#6ABD45"/>
<path id="u" d="M259.25 261.9C259.255 261.711 259.333 261.53 259.466 261.397C259.6 261.263 259.781 261.185 259.97 261.18H261.25C261.439 261.185 261.62 261.263 261.754 261.397C261.887 261.53 261.965 261.711 261.97 261.9V269.9C261.97 272.78 263.26 274.19 265.39 274.19C266.255 274.176 267.107 273.974 267.888 273.6C268.668 273.225 269.358 272.686 269.91 272.02V261.88C269.915 261.691 269.993 261.51 270.126 261.376C270.26 261.243 270.441 261.165 270.63 261.16H271.81C271.999 261.165 272.18 261.243 272.314 261.376C272.447 261.51 272.525 261.691 272.53 261.88V275.63C272.525 275.819 272.447 276 272.314 276.134C272.18 276.268 271.999 276.345 271.81 276.35H271.09C270.67 276.35 270.52 276.09 270.4 275.71L270.14 274.71C268.821 276.002 267.046 276.721 265.2 276.71C260.79 276.71 259.31 273.86 259.31 269.84L259.25 261.9Z" fill="#6ABD45"/>
<path id="s_2" d="M276.96 274.25C277.11 274.02 277.38 273.49 277.49 273.25C277.548 273.176 277.619 273.115 277.701 273.069C277.782 273.023 277.872 272.993 277.965 272.982C278.058 272.971 278.152 272.978 278.242 273.004C278.332 273.029 278.417 273.072 278.49 273.13C279.517 273.926 280.762 274.39 282.06 274.46C283.62 274.46 284.53 273.66 284.53 272.64C284.53 271.31 283.39 270.7 281.19 269.64C279.19 268.64 276.86 267.32 276.86 264.74C276.86 263.15 278.15 260.74 281.68 260.74C283.171 260.716 284.637 261.126 285.9 261.92C286.072 262.058 286.189 262.253 286.229 262.469C286.269 262.686 286.231 262.91 286.12 263.1L285.82 263.7C285.714 263.886 285.542 264.025 285.339 264.09C285.135 264.155 284.914 264.141 284.72 264.05C283.796 263.535 282.774 263.221 281.72 263.13C280.01 263.13 279.56 264.01 279.56 264.65C279.56 265.91 280.81 266.48 282.37 267.24C284.99 268.49 287.37 269.67 287.37 272.4C287.37 274.6 285.25 276.69 282.13 276.69C280.334 276.713 278.587 276.108 277.19 274.98C277.09 274.89 277.015 274.775 276.975 274.647C276.934 274.518 276.929 274.381 276.96 274.25Z" fill="#6ABD45"/>
<path id="e_2" d="M297.74 260.8C298.66 260.776 299.575 260.941 300.428 261.286C301.281 261.631 302.054 262.148 302.699 262.805C303.343 263.461 303.846 264.244 304.174 265.103C304.503 265.963 304.652 266.881 304.61 267.8C304.605 268.134 304.582 268.468 304.54 268.8C304.527 268.974 304.449 269.137 304.321 269.256C304.193 269.375 304.025 269.44 303.85 269.44H292.92C293.015 270.744 293.585 271.969 294.524 272.88C295.463 273.791 296.703 274.325 298.01 274.38C299.344 274.352 300.645 273.957 301.77 273.24C302.3 272.94 302.53 272.75 302.83 273.17L303.48 274.04C303.74 274.38 303.89 274.61 303.32 275.04C301.691 276.196 299.737 276.805 297.74 276.78C293.14 276.78 290.29 273.18 290.29 268.78C290.29 264.38 293.14 260.8 297.74 260.8ZM301.99 267.3C301.94 266.195 301.474 265.151 300.686 264.376C299.898 263.6 298.845 263.152 297.74 263.12C296.564 263.095 295.422 263.509 294.536 264.283C293.65 265.056 293.084 266.132 292.95 267.3H301.99Z" fill="#6ABD45"/>
</g>
</g>
<g id="Frame">
<mask id="mask0_2_3" style="mask-type:alpha" maskUnits="userSpaceOnUse" x="152" y="141" width="103" height="99">
<path id="body-mask" d="M203.115 188.079C201.77 188.522 185.296 195.623 200.873 211.599C230.794 221.916 253.655 201.059 255 184.418C234.941 205.164 211.968 190.63 206.925 178.981C205.916 176.652 206.813 176.319 208.718 176.652L216.562 178.316C220.26 178.76 220.26 176.43 218.467 174.987L210.959 168.442C217.795 143.147 184.064 133.717 170.056 147.03C156.048 160.343 166.134 161.785 172.409 158.79C167.59 164.448 175.211 165.779 179.133 165.114C128.48 206.495 162.099 236.339 173.754 240C167.366 233.232 164.453 225.91 164.004 219.365C163.556 212.819 168.375 205.83 174.762 205.386C170.915 203.833 163.265 200.371 163.444 198.951C163.623 197.531 169.197 197.62 171.961 197.842C170.616 182.31 190.451 179.869 203.115 188.079Z" fill="#C4C4C4"/>
</mask>
<g mask="url(#mask0_2_3)">
<g id="body-waves">
<path id="body-wave-5" opacity="0.5" d="M217.503 19.9614L316.549 240.613L88.6531 342.91L-10.3925 122.259C1.0034 117.143 5.05008 126.158 16.446 121.043C27.8419 115.928 23.7907 106.915 35.1866 101.799C46.5825 96.6838 50.6297 105.688 62.0166 100.577C73.4035 95.4653 69.3658 86.4461 80.7617 81.3308C92.1576 76.2154 96.1998 85.2326 107.596 80.1172C118.992 75.0019 114.945 65.9867 126.336 60.8734C137.728 55.76 141.779 64.7731 153.175 59.6578C164.571 54.5424 160.52 45.5293 171.915 40.4139C183.311 35.2986 187.358 44.3137 198.754 39.1984C210.15 34.083 206.107 25.0768 217.503 19.9614Z" fill="url(#paint0_linear_2_3)"/>
<path id="body-wave-4" opacity="0.5" d="M201.454 49.4927L300.499 270.144L72.6035 372.442L-26.442 151.79C-15.0461 146.674 -10.9994 155.69 0.396454 150.574C11.7924 145.459 7.74116 136.446 19.1371 131.33C30.533 126.215 34.5801 135.219 45.967 130.108C57.354 124.997 53.3162 115.977 64.7121 110.862C76.108 105.747 80.1502 114.764 91.5461 109.648C102.942 104.533 98.8954 95.5179 110.287 90.4046C121.678 85.2912 125.729 94.3044 137.125 89.189C148.521 84.0736 144.47 75.0605 155.866 69.9452C167.262 64.8298 171.308 73.8449 182.704 68.7296C194.1 63.6142 190.058 54.608 201.454 49.4927Z" fill="url(#paint1_linear_2_3)"/>
<path id="body-wave-3" opacity="0.5" d="M244.633 51.9454L343.679 272.597L115.784 374.894L16.7379 154.242C28.1338 149.127 32.1805 158.142 43.5764 153.027C54.9723 147.912 50.9211 138.898 62.317 133.783C73.7129 128.668 77.7601 137.672 89.147 132.561C100.534 127.449 96.4962 118.43 107.892 113.315C119.288 108.199 123.33 117.217 134.726 112.101C146.122 106.986 142.075 97.9706 153.467 92.8573C164.858 87.744 168.909 96.7571 180.305 91.6417C191.701 86.5264 187.65 77.5132 199.046 72.3979C210.442 67.2825 214.488 76.2977 225.884 71.1823C237.28 66.0669 233.238 57.0607 244.633 51.9454Z" fill="url(#paint2_linear_2_3)"/>
<path id="body-wave-2" opacity="0.5" d="M217.996 92.9322L317.042 313.584L89.1462 415.881L-9.89934 195.229C1.49656 190.114 5.54325 199.129 16.9391 194.014C28.335 188.898 24.2839 179.885 35.6798 174.77C47.0757 169.655 51.1228 178.659 62.5097 173.547C73.8966 168.436 69.8589 159.417 81.2548 154.302C92.6507 149.186 96.6929 158.203 108.089 153.088C119.485 147.973 115.438 138.957 126.829 133.844C138.221 128.731 142.272 137.744 153.668 132.629C165.064 127.513 161.013 118.5 172.409 113.385C183.804 108.269 187.851 117.285 199.247 112.169C210.643 107.054 206.6 98.0476 217.996 92.9322Z" fill="url(#paint3_linear_2_3)"/>
<path id="body-wave-1" opacity="0.5" d="M269.707 98.1092L368.753 318.761L140.857 421.058L41.8115 200.406C53.2074 195.291 57.2541 204.306 68.65 199.191C80.0459 194.075 75.9947 185.062 87.3906 179.947C98.7865 174.832 102.834 183.836 114.221 178.724C125.607 173.613 121.57 164.594 132.966 159.479C144.362 154.363 148.404 163.38 159.8 158.265C171.196 153.15 167.149 144.134 178.54 139.021C189.932 133.908 193.983 142.921 205.379 137.806C216.775 132.69 212.723 123.677 224.119 118.562C235.515 113.446 239.562 122.461 250.958 117.346C262.354 112.231 258.311 103.225 269.707 98.1092Z" fill="url(#paint4_linear_2_3)"/>
</g>
</g>
</g>
<g id="Wing Mask">
<mask id="mask1_2_3" style="mask-type:alpha" maskUnits="userSpaceOnUse" x="170" y="184" width="85" height="59">
<path id="wing" d="M182.531 219.902C170.43 210.24 161.438 221.219 183.308 236.48C205.177 251.741 258.685 242.519 254.799 184C248.471 212.546 217.438 219.039 198.96 210.24C192.966 207.386 185.953 209.103 192.522 215.291C179.977 209.142 177.424 214.083 182.531 219.902Z" fill="#C4C4C4"/>
</mask>
<g mask="url(#mask1_2_3)">
<g id="wing-waves">
<path id="wing-wave-4" opacity="0.8" d="M-347.821 60.8876L38.8038 -125.224L231.026 274.093L-155.599 460.205C-165.211 440.237 -149.415 432.633 -159.027 412.665C-168.639 392.697 -184.431 400.309 -194.043 380.341C-203.655 360.373 -187.879 352.769 -197.483 332.817C-207.087 312.865 -222.891 320.453 -232.503 300.485C-242.115 280.518 -226.315 272.921 -235.927 252.954C-245.539 232.986 -261.336 240.59 -270.944 220.63C-280.552 200.67 -264.76 193.058 -274.372 173.09C-283.984 153.122 -299.776 160.734 -309.388 140.766C-319 120.799 -303.204 113.195 -312.816 93.2268C-322.428 73.259 -338.209 80.8554 -347.821 60.8876Z" fill="url(#paint5_linear_2_3)" fill-opacity="0.8"/>
<path id="wing-wave-3" opacity="0.8" d="M-289.772 98.3793L96.8522 -87.7327L289.074 311.584L-97.5506 497.696C-107.163 477.728 -91.3663 470.124 -100.978 450.157C-110.59 430.189 -126.383 437.801 -135.995 417.833C-145.607 397.865 -129.83 390.261 -139.435 370.309C-149.039 350.357 -164.843 357.945 -174.455 337.977C-184.067 318.009 -168.267 310.413 -177.879 290.445C-187.491 270.478 -203.287 278.081 -212.896 258.121C-222.504 238.162 -206.711 230.55 -216.323 210.582C-225.935 190.614 -241.728 198.226 -251.34 178.258C-260.952 158.29 -245.156 150.686 -254.768 130.719C-264.38 110.751 -280.16 118.347 -289.772 98.3793Z" fill="url(#paint6_linear_2_3)" fill-opacity="0.8"/>
<path id="wing-wave-2" opacity="0.8" d="M-313.672 1.74547L72.9524 -184.367L265.174 214.95L-121.45 401.062C-131.062 381.095 -115.266 373.491 -124.878 353.523C-134.49 333.555 -150.283 341.167 -159.895 321.199C-169.507 301.231 -153.73 293.627 -163.334 273.675C-172.939 253.723 -188.743 261.311 -198.355 241.343C-207.967 221.375 -192.167 213.779 -201.779 193.812C-211.391 173.844 -227.187 181.448 -236.795 161.488C-246.404 141.528 -230.611 133.916 -240.223 113.948C-249.835 93.9802 -265.628 101.592 -275.24 81.6242C-284.852 61.6564 -269.055 54.0525 -278.667 34.0847C-288.28 14.1169 -304.06 21.7133 -313.672 1.74547Z" fill="url(#paint7_linear_2_3)" fill-opacity="0.8"/>
<path id="wing-wave-1" opacity="0.8" d="M-216.165 133.559L170.459 -52.5531L362.681 346.764L-23.9432 532.876C-33.5553 512.908 -17.759 505.304 -27.371 485.336C-36.9831 465.368 -52.7755 472.98 -62.3876 453.013C-71.9996 433.045 -56.2228 425.44 -65.8273 405.488C-75.4317 385.536 -91.2356 393.124 -100.848 373.157C-110.46 353.189 -94.6596 345.593 -104.272 325.625C-113.884 305.657 -129.68 313.261 -139.288 293.301C-148.896 273.341 -133.104 265.729 -142.716 245.761C-152.328 225.794 -168.121 233.406 -177.733 213.438C-187.345 193.47 -171.548 185.866 -181.16 165.898C-190.772 145.93 -206.553 153.527 -216.165 133.559Z" fill="url(#paint8_linear_2_3)" fill-opacity="0.8"/>
</g>
</g>
</g>
<path id="wing-fade-in" d="M182.531 219.902C170.43 210.24 161.438 221.219 183.308 236.48C205.177 251.741 258.685 242.519 254.799 184C248.471 212.546 217.438 219.039 198.96 210.24C192.966 207.386 185.953 209.103 192.522 215.291C179.977 209.142 177.424 214.083 182.531 219.902Z" fill="#22A049"/>
<path id="body-fade-in" d="M203.115 188.079C201.77 188.522 185.296 195.623 200.873 211.599C230.794 221.916 253.655 201.059 255 184.418C234.941 205.164 211.968 190.63 206.925 178.981C205.916 176.652 206.813 176.319 208.718 176.652L216.562 178.316C220.26 178.76 220.26 176.43 218.467 174.987L210.959 168.442C217.795 143.147 184.064 133.717 170.056 147.03C156.048 160.343 166.134 161.785 172.409 158.79C167.59 164.448 175.211 165.779 179.133 165.114C128.48 206.495 162.099 236.339 173.754 240C167.366 233.232 164.453 225.91 164.004 219.365C163.556 212.819 168.375 205.83 174.762 205.386C170.915 203.833 163.265 200.371 163.444 198.951C163.623 197.531 169.197 197.62 171.961 197.842C170.616 182.31 190.451 179.869 203.115 188.079Z" fill="#6ABD45"/>
</g>
</g>
<defs>
<linearGradient id="paint0_linear_2_3" x1="103.551" y1="71.1011" x2="202.601" y2="291.762" gradientUnits="userSpaceOnUse">
<stop stop-color="#6ABD45"/>
</linearGradient>
<linearGradient id="paint1_linear_2_3" x1="87.5017" y1="100.632" x2="186.551" y2="321.293" gradientUnits="userSpaceOnUse">
<stop stop-color="#6ABD45"/>
</linearGradient>
<linearGradient id="paint2_linear_2_3" x1="130.682" y1="103.085" x2="229.731" y2="323.746" gradientUnits="userSpaceOnUse">
<stop stop-color="#6ABD45"/>
</linearGradient>
<linearGradient id="paint3_linear_2_3" x1="104.044" y1="144.072" x2="203.094" y2="364.733" gradientUnits="userSpaceOnUse">
<stop stop-color="#6ABD45"/>
</linearGradient>
<linearGradient id="paint4_linear_2_3" x1="155.755" y1="149.249" x2="254.805" y2="369.91" gradientUnits="userSpaceOnUse">
<stop stop-color="#6ABD45"/>
</linearGradient>
<linearGradient id="paint5_linear_2_3" x1="-251.726" y1="260.554" x2="134.915" y2="74.4341" gradientUnits="userSpaceOnUse">
<stop stop-color="#A2ED04"/>
<stop offset="1" stop-color="#24B34B"/>
</linearGradient>
<linearGradient id="paint6_linear_2_3" x1="-193.677" y1="298.045" x2="192.963" y2="111.926" gradientUnits="userSpaceOnUse">
<stop stop-color="#A2ED04"/>
<stop offset="1" stop-color="#24B34B"/>
</linearGradient>
<linearGradient id="paint7_linear_2_3" x1="-217.577" y1="201.411" x2="169.063" y2="15.2919" gradientUnits="userSpaceOnUse">
<stop stop-color="#A2ED04"/>
<stop offset="1" stop-color="#24B34B"/>
</linearGradient>
<linearGradient id="paint8_linear_2_3" x1="-120.07" y1="333.225" x2="266.57" y2="147.105" gradientUnits="userSpaceOnUse">
<stop stop-color="#A2ED04"/>
<stop offset="1" stop-color="#24B34B"/>
</linearGradient>
<clipPath id="clip0_2_3">
<rect width="413" height="413" fill="white"/>
</clipPath>
</defs>
</svg>
