<svg width="56" height="65" viewBox="0 0 56 65" fill="none" xmlns="http://www.w3.org/2000/svg">
<path fill-rule="evenodd" clip-rule="evenodd" d="M48.5 65C52.5 39.8 55.1667 11.1667 56 0H0L4 59L48.5 65ZM8.56414 8.56072C8.20654 8.91453 8.00376 9.39493 8 9.89717V46.1106C8.01771 46.6097 8.22452 47.0835 8.57875 47.4367C8.93299 47.7898 9.40833 47.9959 9.90898 48.0136H17.3312C19.2402 48.0136 19.8385 47.5307 19.8385 46.1106V24.0701C20.5959 22.1994 21.9004 20.599 23.5823 19.477C25.2642 18.355 27.2458 17.7634 29.2695 17.7789C34.0846 17.7789 36.7914 21.102 36.7914 26.2997V46.1106C36.7914 46.6153 36.9925 47.0993 37.3505 47.4562C37.7085 47.8131 38.1941 48.0136 38.7004 48.0136H46.9631C47.4624 47.9957 47.9361 47.7891 48.2881 47.4357C48.64 47.0822 48.8437 46.6084 48.8579 46.1106V26.882C48.8579 16.5008 43.7435 7.00008 31.0075 7.00008C28.371 6.9925 25.7597 7.51136 23.3277 8.52601C20.8956 9.54066 18.692 11.0306 16.8468 12.9078L15.4222 9.20132C15.3059 8.84718 15.0782 8.53985 14.7728 8.32496C14.4674 8.11007 14.1006 7.99907 13.7269 8.00841H9.90898C9.40515 8.0084 8.92174 8.20691 8.56414 8.56072Z" fill="white"/>
</svg>
